<?xml version="1.0" standalone="no"?>
<!DOCTYPE svg PUBLIC "-//W3C//DTD SVG 1.1//EN" "http://www.w3.org/Graphics/SVG/1.1/DTD/svg11.dtd" >
<svg xmlns="http://www.w3.org/2000/svg">
<metadata>
<json>
<![CDATA[
{
	"fontFamily": "showingtime-icons",
	"majorVersion": 1,
	"minorVersion": 4,
	"description": "ShowingTime Icon font generated by IcoMoon.\nFont generated by IcoMoon.",
	"licenseURL": "https://opensource.org/licenses/MIT",
	"license": "MIT Licence",
	"designer": "https://www.showingtime.com/",
	"designerURL": "https://www.showingtime.com/",
	"copyright": "ShowingTime",
	"version": "Version 1.4",
	"fontId": "showingtime-icons",
	"psName": "showingtime-icons",
	"subFamily": "Regular",
	"fullName": "showingtime-icons"
}
]]>
</json>
</metadata>
<defs>
<font id="showingtime-icons" horiz-adv-x="1024">
<font-face units-per-em="1024" ascent="896" descent="-128" />
<missing-glyph horiz-adv-x="1024" />
<glyph unicode="&#x20;" horiz-adv-x="0" d="" />
<glyph unicode="&#xe900;" glyph-name="ac_unit" data-tags="ac_unit" d="M896 426.667h-135.253l108.373 108.373c16.64 16.64 16.64 43.52 0 60.16s-43.947 16.64-60.587 0l-168.533-168.533h-85.333v85.333l168.533 168.533c16.64 16.64 16.64 43.947 0 60.587s-43.52 16.64-60.16 0l-108.373-108.373v135.253c0 23.467-19.2 42.667-42.667 42.667s-42.667-19.2-42.667-42.667v-135.253l-108.373 108.373c-16.64 16.64-43.52 16.64-60.16 0s-16.64-43.947 0-60.587l168.533-168.533v-85.333h-85.333l-168.533 168.533c-16.64 16.64-43.947 16.64-60.587 0s-16.64-43.52 0-60.16l108.373-108.373h-135.253c-23.467 0-42.667-19.2-42.667-42.667s19.2-42.667 42.667-42.667h135.253l-108.373-108.373c-16.64-16.64-16.64-43.52 0-60.16s43.947-16.64 60.587 0l168.533 168.533h85.333v-85.333l-168.533-168.533c-16.64-16.64-16.64-43.947 0-60.587s43.52-16.64 60.16 0l108.373 108.373v-135.253c0-23.467 19.2-42.667 42.667-42.667s42.667 19.2 42.667 42.667v135.253l108.373-108.373c16.64-16.64 43.52-16.64 60.16 0s16.64 43.947 0 60.587l-168.533 168.533v85.333h85.333l168.533-168.533c16.64-16.64 43.947-16.64 60.587 0s16.64 43.52 0 60.16l-108.373 108.373h135.253c23.467 0 42.667 19.2 42.667 42.667s-19.2 42.667-42.667 42.667z" />
<glyph unicode="&#xe901;" glyph-name="account_circle" data-tags="account_circle" d="M512 810.667c-235.52 0-426.667-191.147-426.667-426.667s191.147-426.667 426.667-426.667c235.52 0 426.667 191.147 426.667 426.667s-191.147 426.667-426.667 426.667zM512 640c82.347 0 149.333-66.987 149.333-149.333s-66.987-149.333-149.333-149.333c-82.347 0-149.333 66.987-149.333 149.333s66.987 149.333 149.333 149.333zM512 42.667c-86.613 0-189.013 34.987-261.973 122.88 72.107 56.32 162.987 90.453 261.973 90.453s189.867-34.133 261.973-90.453c-72.96-87.893-175.36-122.88-261.973-122.88z" />
<glyph unicode="&#xe902;" glyph-name="add" data-tags="add" d="M768 341.333h-213.333v-213.333c0-23.467-19.2-42.667-42.667-42.667s-42.667 19.2-42.667 42.667v213.333h-213.333c-23.467 0-42.667 19.2-42.667 42.667s19.2 42.667 42.667 42.667h213.333v213.333c0 23.467 19.2 42.667 42.667 42.667s42.667-19.2 42.667-42.667v-213.333h213.333c23.467 0 42.667-19.2 42.667-42.667s-19.2-42.667-42.667-42.667z" />
<glyph unicode="&#xe903;" glyph-name="apartment" data-tags="apartment" d="M725.333 426.667v256c0 46.933-38.4 85.333-85.333 85.333h-256c-46.933 0-85.333-38.4-85.333-85.333v-85.333h-85.333c-46.933 0-85.333-38.4-85.333-85.333v-426.667c0-46.933 38.4-85.333 85.333-85.333h256v170.667h85.333v-170.667h256c46.933 0 85.333 38.4 85.333 85.333v256c0 46.933-38.4 85.333-85.333 85.333h-85.333zM298.667 85.333h-85.333v85.333h85.333v-85.333zM298.667 256h-85.333v85.333h85.333v-85.333zM298.667 426.667h-85.333v85.333h85.333v-85.333zM469.333 256h-85.333v85.333h85.333v-85.333zM469.333 426.667h-85.333v85.333h85.333v-85.333zM469.333 597.333h-85.333v85.333h85.333v-85.333zM640 256h-85.333v85.333h85.333v-85.333zM640 426.667h-85.333v85.333h85.333v-85.333zM640 597.333h-85.333v85.333h85.333v-85.333zM810.667 85.333h-85.333v85.333h85.333v-85.333zM810.667 256h-85.333v85.333h85.333v-85.333z" />
<glyph unicode="&#xe904;" glyph-name="appt_cancelled_alt" data-tags="appointment_cancelled_alt" d="M635.733 768h-247.467c-22.613 0-44.373-8.96-60.587-25.173l-174.933-174.933c-15.787-15.787-24.747-37.547-24.747-60.16v-247.467c0-22.613 8.96-44.373 25.173-60.16l174.933-174.933c15.787-16.213 37.547-25.173 60.16-25.173h247.467c22.613 0 44.373 8.96 60.16 25.173l174.933 174.933c16.213 15.787 25.173 37.547 25.173 60.16v247.467c0 22.613-8.96 44.373-25.173 60.16l-174.933 174.933c-15.787 16.213-37.547 25.173-60.16 25.173zM725.547 383.915c0-23.552-18.987-42.581-42.539-42.581l-341.803-0.299c-23.552 0-42.539 19.029-42.539 42.539 0 23.552 18.987 42.539 42.539 42.539l341.205 0.341c23.851 0.299 43.136-19.029 43.136-42.539z" />
<glyph unicode="&#xe905;" glyph-name="appt_cancelled_circle" data-tags="appointment_cancelled_circle" d="M512 810.667c-235.52 0-426.667-191.147-426.667-426.667s191.147-426.667 426.667-426.667c235.52 0 426.667 191.147 426.667 426.667s-191.147 426.667-426.667 426.667zM682.667 341.333h-341.333c-23.467 0-42.667 19.2-42.667 42.667s19.2 42.667 42.667 42.667h341.333c23.467 0 42.667-19.2 42.667-42.667s-19.2-42.667-42.667-42.667z" />
<glyph unicode="&#xe906;" glyph-name="appt_confirmed_circle" data-tags="appointment_confirmed_circle" d="M512 810.667c-235.52 0-426.667-191.147-426.667-426.667s191.147-426.667 426.667-426.667c235.52 0 426.667 191.147 426.667 426.667s-191.147 426.667-426.667 426.667zM723.2 459.52l-241.493-241.493c-16.64-16.64-43.52-16.64-60.16 0l-120.747 120.747c-16.64 16.64-16.64 43.52 0 60.16s43.52 16.64 60.16 0l90.453-90.453 211.2 211.2c16.64 16.64 43.52 16.64 60.16 0 17.067-16.64 17.067-43.52 0.427-60.16z" />
<glyph unicode="&#xe907;" glyph-name="appt_requested" data-tags="appointment_requested" d="M592.384 48.171c-16.555-28.715-47.232-46.464-80.384-46.464s-63.829 17.749-80.384 46.464l-333.867 579.029c-8.149 14.080-12.416 30.080-12.416 46.336 0 50.901 41.856 92.757 92.757 92.757h667.819c50.901 0 92.757-41.856 92.757-92.757 0-16.256-4.267-32.256-12.416-46.336l-333.867-579.029zM268.629 621.227l243.371-422.016 243.371 422.016h-486.741z" />
<glyph unicode="&#xe908;" glyph-name="appt_requested_circle" data-tags="appointment_requested_circle" d="M512 810.667c235.52 0 426.667-191.147 426.667-426.667s-191.147-426.667-426.667-426.667c-235.52 0-426.667 191.147-426.667 426.667s191.147 426.667 426.667 426.667zM584.832 187.179l149.077 258.475c7.339 12.757 11.221 27.264 11.221 42.027 0 46.123-37.931 84.053-84.053 84.053h-298.155c-46.123 0-84.053-37.931-84.053-84.053 0-14.763 3.883-29.269 11.264-42.069-0.043 0.043 149.035-258.432 149.035-258.432 14.976-26.027 42.795-42.112 72.832-42.112s57.856 16.085 72.875 42.112h-0.043zM377.984 486.4c46.933 0 208.939 0 263.125 0 3.669 0 7.040-1.963 8.875-5.12 1.835-3.2 1.835-7.125 0-10.283-26.155-45.397-102.699-178.133-128.981-223.744-1.877-3.2-5.291-5.205-9.003-5.205s-7.125 2.005-9.003 5.205c-27.179 47.147-108.032 187.392-131.456 228.011-1.323 2.304-1.323 5.12 0 7.424s3.797 3.712 6.443 3.712z" />
<glyph unicode="&#xe909;" glyph-name="apps" data-tags="apps" horiz-adv-x="1067" d="M279.637 554.667c46.933 0 85.333 38.4 85.333 85.333s-38.4 85.333-85.333 85.333c-46.933 0-85.333-38.4-85.333-85.333s38.4-85.333 85.333-85.333zM535.637 42.667c46.933 0 85.333 38.4 85.333 85.333s-38.4 85.333-85.333 85.333c-46.933 0-85.333-38.4-85.333-85.333s38.4-85.333 85.333-85.333zM279.637 42.667c46.933 0 85.333 38.4 85.333 85.333s-38.4 85.333-85.333 85.333c-46.933 0-85.333-38.4-85.333-85.333s38.4-85.333 85.333-85.333zM279.637 298.667c46.933 0 85.333 38.4 85.333 85.333s-38.4 85.333-85.333 85.333c-46.933 0-85.333-38.4-85.333-85.333s38.4-85.333 85.333-85.333zM535.637 298.667c46.933 0 85.333 38.4 85.333 85.333s-38.4 85.333-85.333 85.333c-46.933 0-85.333-38.4-85.333-85.333s38.4-85.333 85.333-85.333zM706.304 640c0-46.933 38.4-85.333 85.333-85.333s85.333 38.4 85.333 85.333c0 46.933-38.4 85.333-85.333 85.333s-85.333-38.4-85.333-85.333zM535.637 554.667c46.933 0 85.333 38.4 85.333 85.333s-38.4 85.333-85.333 85.333c-46.933 0-85.333-38.4-85.333-85.333s38.4-85.333 85.333-85.333zM791.637 298.667c46.933 0 85.333 38.4 85.333 85.333s-38.4 85.333-85.333 85.333c-46.933 0-85.333-38.4-85.333-85.333s38.4-85.333 85.333-85.333zM791.637 42.667c46.933 0 85.333 38.4 85.333 85.333s-38.4 85.333-85.333 85.333c-46.933 0-85.333-38.4-85.333-85.333s38.4-85.333 85.333-85.333z" />
<glyph unicode="&#xe90a;" glyph-name="arrow_backward" data-tags="arrow_backwards" d="M810.667 426.667h-476.587l208.213 208.213c16.64 16.64 16.64 43.947 0 60.587s-43.52 16.64-60.16 0l-281.173-281.173c-16.64-16.64-16.64-43.52 0-60.16l281.173-281.173c16.64-16.64 43.52-16.64 60.16 0s16.64 43.52 0 60.16l-208.213 208.213h476.587c23.467 0 42.667 19.2 42.667 42.667s-19.2 42.667-42.667 42.667z" />
<glyph unicode="&#xe90b;" glyph-name="arrow_downward" data-tags="arrow_downward" d="M469.333 682.667v-476.587l-208.213 208.213c-16.64 16.64-43.947 16.64-60.587 0s-16.64-43.52 0-60.16l281.173-281.173c16.64-16.64 43.52-16.64 60.16 0l281.173 281.173c16.64 16.64 16.64 43.52 0 60.16s-43.52 16.64-60.16 0l-208.213-208.213v476.587c0 23.467-19.2 42.667-42.667 42.667s-42.667-19.2-42.667-42.667z" />
<glyph unicode="&#xe90c;" glyph-name="arrow_drop_down" data-tags="arrow_drop_down" d="M371.627 396.373l110.507-110.507c16.64-16.64 43.52-16.64 60.16 0l110.507 110.507c26.88 26.88 7.68 72.96-30.293 72.96h-221.013c-37.973 0-56.747-46.080-29.867-72.96z" />
<glyph unicode="&#xe90d;" glyph-name="arrow_drop_left" data-tags="arrow_drop_left" d="M524.373 524.373l-110.507-110.507c-16.64-16.64-16.64-43.52 0-60.16l110.507-110.507c26.88-26.88 72.96-7.68 72.96 30.293v221.013c0 37.973-46.080 56.747-72.96 29.867z" />
<glyph unicode="&#xe90e;" glyph-name="arrow_drop_right" data-tags="arrow_drop_right" d="M499.627 243.627l110.507 110.507c16.64 16.64 16.64 43.52 0 60.16l-110.507 110.507c-26.88 26.453-72.96 7.68-72.96-30.293v-220.587c0-38.4 46.080-57.173 72.96-30.293z" />
<glyph unicode="&#xe90f;" glyph-name="arrow_drop_unsorted" data-tags="arrow_drop_unsorted" d="M361.259 259.84l118.656-118.613c17.877-17.877 46.72-17.877 64.597 0l118.656 118.613c28.885 28.885 8.235 78.379-32.512 78.379h-237.312c-40.789 0-60.928-49.493-32.085-78.379zM361.259 507.733l118.656 118.656c17.877 17.877 46.72 17.877 64.597 0l118.656-118.656c28.885-28.843 8.235-78.336-32.512-78.336h-237.312c-40.789 0-60.928 49.493-32.085 78.336z" />
<glyph unicode="&#xe910;" glyph-name="arrow_drop_up" data-tags="arrow_drop_up" d="M371.627 371.627l110.507 110.507c16.64 16.64 43.52 16.64 60.16 0l110.507-110.507c26.88-26.88 7.68-72.96-30.293-72.96h-221.013c-37.973 0-56.747 46.080-29.867 72.96z" />
<glyph unicode="&#xe911;" glyph-name="arrow_exchange" data-tags="arrow_exchange" d="M923.733 569.6l-119.040 119.040c-13.653 13.653-36.693 4.267-36.693-14.933v-76.373h-597.333c-23.467 0-42.667-19.2-42.667-42.667s19.2-42.667 42.667-42.667h597.333v-76.373c0-19.2 23.040-28.587 36.267-14.933l119.040 119.040c8.533 8.107 8.533 21.76 0.427 29.867zM853.333 256h-597.333v76.373c0 19.2-23.040 28.587-36.267 14.933l-119.040-119.040c-8.533-8.107-8.533-21.76-0.427-29.867l119.040-119.040c13.653-13.653 36.693-4.267 36.693 14.933v76.373h597.333c23.467 0 42.667 19.2 42.667 42.667s-19.2 42.667-42.667 42.667z" />
<glyph unicode="&#xe912;" glyph-name="arrow_forward" data-tags="arrow_forward" d="M213.333 341.333h476.587l-208.213-208.213c-16.64-16.64-16.64-43.947 0-60.587s43.52-16.64 60.16 0l281.173 281.173c16.64 16.64 16.64 43.52 0 60.16l-280.747 281.6c-16.64 16.64-43.52 16.64-60.16 0s-16.64-43.52 0-60.16l207.787-208.64h-476.587c-23.467 0-42.667-19.2-42.667-42.667s19.2-42.667 42.667-42.667z" />
<glyph unicode="&#xe913;" glyph-name="arrow_left" data-tags="arrow_left" d="M340.907 341.675h469.76c23.467 0 42.667 19.2 42.667 42.667s-19.2 42.667-42.667 42.667h-469.76v76.373c0 19.2-23.040 28.587-36.267 14.933l-118.613-119.040c-8.107-8.533-8.107-21.76 0-30.293l118.613-119.040c13.227-13.653 36.267-3.84 36.267 14.933v76.8z" />
<glyph unicode="&#xe914;" glyph-name="arrow_right" data-tags="arrow_right" d="M683.093 426.667h-469.76c-23.467 0-42.667-19.2-42.667-42.667s19.2-42.667 42.667-42.667h469.76v-76.373c0-19.2 23.040-28.587 36.267-14.933l118.613 119.040c8.107 8.533 8.107 21.76 0 30.293l-118.613 119.040c-13.227 13.653-36.267 3.84-36.267-14.933v-76.8z" />
<glyph unicode="&#xe915;" glyph-name="arrow_upward" data-tags="arrow_upward" d="M554.667 85.333v476.587l208.213-208.213c16.64-16.64 43.947-16.64 60.587 0s16.64 43.52 0 60.16l-281.173 281.173c-16.64 16.64-43.52 16.64-60.16 0l-281.6-280.747c-16.64-16.64-16.64-43.52 0-60.16s43.52-16.64 60.16 0l208.64 207.787v-476.587c0-23.467 19.2-42.667 42.667-42.667s42.667 19.2 42.667 42.667z" />
<glyph unicode="&#xe916;" glyph-name="attachment" data-tags="attachment" d="M661.333 608v-408.747c0-89.173-65.28-168.533-154.027-177.067-101.547-9.813-187.307 69.973-187.307 169.813v442.027c0 55.893 40.107 106.667 95.573 112.213 64 6.4 117.76-43.52 117.76-106.24v-405.333c0-23.467-19.2-42.667-42.667-42.667s-42.667 19.2-42.667 42.667v373.333c0 17.493-14.507 32-32 32s-32-14.507-32-32v-367.36c0-55.893 40.107-106.667 95.573-112.213 64-6.4 117.76 43.52 117.76 106.24v398.080c0 89.173-65.28 168.533-154.027 177.067-101.547 9.813-187.307-69.973-187.307-169.813v-438.187c0-122.453 89.6-232.107 211.627-243.627 140.373-12.8 257.707 96.427 257.707 233.813v416c0 17.493-14.507 32-32 32s-32-14.507-32-32z" />
<glyph unicode="&#xe917;" glyph-name="attachment_alt" data-tags="attachment_alt" d="M808.576 421.675l-289.024-289.024c-63.061-63.061-165.333-73.003-234.112-16.299-78.763 64.896-82.987 181.931-12.373 252.544l312.533 312.533c39.552 39.552 103.808 47.061 146.944 11.776 49.792-40.704 52.48-114.048 8.149-158.379l-286.592-286.635c-16.597-16.597-43.776-16.597-60.373 0s-16.597 43.776 0 60.373l263.979 263.979c12.373 12.373 12.373 32.853 0 45.227-12.331 12.373-32.853 12.373-45.227 0l-259.755-259.755c-39.552-39.509-47.061-103.765-11.776-146.901 40.704-49.792 114.048-52.523 158.379-8.149l281.472 281.472c63.061 63.061 73.045 165.333 16.299 234.112-64.853 78.763-181.931 82.987-252.501 12.373l-309.845-309.845c-86.613-86.571-100.779-227.499-22.613-321.92 90.197-108.288 250.411-114.048 347.52-16.896l294.187 294.187c12.373 12.331 12.373 32.853 0 45.227s-32.896 12.373-45.269 0z" />
<glyph unicode="&#xe918;" glyph-name="bathtub" data-tags="bathtub" d="M384 597.333c0-47.128-38.205-85.333-85.333-85.333s-85.333 38.205-85.333 85.333c0 47.128 38.205 85.333 85.333 85.333s85.333-38.205 85.333-85.333zM896 341.333h-42.667v348.587c0 66.56-54.187 120.747-120.747 120.747-32 0-62.72-12.8-85.333-35.413l-53.333-53.333c-6.827 2.133-14.080 3.413-21.76 3.413-17.067 0-32.853-5.12-46.080-13.653l117.76-117.76c8.533 13.227 13.653 29.013 13.653 46.080 0 7.68-1.28 14.507-2.987 21.76l53.333 53.333c6.4 6.4 15.36 10.24 24.747 10.24 19.627 0 35.413-15.787 35.413-35.413v-348.587h-292.267c-12.8 8.96-24.32 19.2-34.987 30.72l-59.733 66.133c-8.107 8.96-18.347 16.213-29.44 21.333-13.227 6.4-27.733 9.813-42.667 9.813-52.907-0.427-95.573-43.093-95.573-96v-32h-85.333c-23.467 0-42.667-19.2-42.667-42.667v-213.333c0-46.933 38.4-85.333 85.333-85.333 0-23.467 19.2-42.667 42.667-42.667h597.333c23.467 0 42.667 19.2 42.667 42.667 46.933 0 85.333 38.4 85.333 85.333v213.333c0 23.467-19.2 42.667-42.667 42.667z" />
<glyph unicode="&#xe919;" glyph-name="bed" data-tags="bed" d="M298.667 320c70.827 0 128 57.173 128 128s-57.173 128-128 128c-70.827 0-128-57.173-128-128s57.173-128 128-128zM810.667 618.667h-256c-46.933 0-85.333-38.4-85.333-85.333v-256h-341.333v384c0 23.467-19.2 42.667-42.667 42.667s-42.667-19.2-42.667-42.667v-554.667c0-23.467 19.2-42.667 42.667-42.667s42.667 19.2 42.667 42.667v85.333h768v-85.333c0-23.467 19.2-42.667 42.667-42.667s42.667 19.2 42.667 42.667v341.333c0 94.293-76.373 170.667-170.667 170.667z" />
<glyph unicode="&#xe91a;" glyph-name="bookmark" data-tags="bookmark" d="M716.8 756.818h-409.6c-45.056 0-81.92-36.864-81.92-81.92v-593.101c0-29.491 29.901-49.152 56.934-37.683l229.786 98.304 229.786-98.304c27.034-11.469 56.934 8.192 56.934 37.683v593.101c0 45.056-36.864 81.92-81.92 81.92z" />
<glyph unicode="&#xe91b;" glyph-name="briefcase" data-tags="briefcase" d="M839.68 633.938h-163.84v81.92c0 45.466-36.454 81.92-81.92 81.92h-163.84c-45.466 0-81.92-36.454-81.92-81.92v-81.92h-163.84c-45.466 0-81.51-36.454-81.51-81.92l-0.41-450.56c0-45.466 36.454-81.92 81.92-81.92h655.36c45.466 0 81.92 36.454 81.92 81.92v450.56c0 45.466-36.454 81.92-81.92 81.92zM593.92 633.938h-163.84v81.92h163.84v-81.92z" />
<glyph unicode="&#xe91c;" glyph-name="build_tool" data-tags="build_too" d="M825.344 219.832l-206.029 206.029c17.203 46.694 21.709 99.533 5.325 154.829-24.986 85.197-95.846 152.371-182.272 170.803-69.222 14.336-134.758-0.41-186.778-34.406l149.094-149.094-72.499-72.499-149.094 149.094c-33.997-52.019-48.742-117.555-33.997-186.778 18.432-86.835 85.606-157.696 170.394-182.272 55.706-16.384 108.544-11.878 154.829 5.325l206.029-206.029c40.141-40.141 104.858-40.141 144.998 0 39.731 40.141 39.731 104.858 0 144.998z" />
<glyph unicode="&#xe91d;" glyph-name="bus" data-tags="bus" d="M512 810.667c-170.667 0-341.333-21.333-341.333-170.667v-405.333c0-40.533 16.213-77.227 42.667-104.107v-66.56c0-35.413 28.587-64 64-64s64 28.587 64 64v21.333h341.333v-21.333c0-34.987 28.587-64 64-64 34.987 0 64 28.587 64 64v66.56c26.453 26.88 42.667 63.573 42.667 104.107v405.333c0 149.333-152.747 170.667-341.333 170.667zM362.667 213.333c-35.413 0-64 28.587-64 64s28.587 64 64 64c35.413 0 64-28.587 64-64s-28.587-64-64-64zM661.333 213.333c-35.413 0-64 28.587-64 64s28.587 64 64 64c35.413 0 64-28.587 64-64s-28.587-64-64-64zM768 469.333h-512v128h512v-128z" />
<glyph unicode="&#xe91e;" glyph-name="calendar" data-tags="calendar" d="M810.667 725.333h-42.667v42.667c0 23.467-19.2 42.667-42.667 42.667s-42.667-19.2-42.667-42.667v-42.667h-341.333v42.667c0 23.467-19.2 42.667-42.667 42.667s-42.667-19.2-42.667-42.667v-42.667h-42.667c-47.36 0-84.907-38.4-84.907-85.333l-0.427-597.333c0-46.933 37.973-85.333 85.333-85.333h597.333c46.933 0 85.333 38.4 85.333 85.333v597.333c0 46.933-38.4 85.333-85.333 85.333zM810.667 42.667h-597.333v426.667h597.333v-426.667zM286.464 281.003h91.904c10.624 0.171 19.328 8.875 19.499 19.499l-0.043 76.416c-0.128 10.624-8.832 19.328-19.456 19.499h-91.904c-10.667-0.171-19.371-8.875-19.499-19.499v-76.416c0.384-10.539 8.917-19.115 19.499-19.541v0.043zM645.632 281.003h91.904c10.667 0.171 19.371 8.875 19.499 19.499v76.416c-0.128 10.624-8.832 19.328-19.499 19.499h-91.904c-10.624-0.171-19.328-8.875-19.499-19.499v-76.416c0-0.085 0-0.171 0-0.256 0-10.581 8.704-19.285 19.285-19.285 0.085 0 0.171 0 0.213 0v0.043zM626.176 136.448c0.128-10.624 8.832-19.328 19.456-19.499h91.904c10.667 0.171 19.371 8.875 19.499 19.499v76.416c-0.128 10.624-8.832 19.328-19.499 19.499h-91.904c-10.624-0.171-19.328-8.875-19.499-19.499v-76.416zM465.707 281.003h91.861c10.667 0.171 19.371 8.875 19.499 19.499v76.416c-0.128 10.624-8.832 19.328-19.499 19.499h-91.861c-10.667-0.171-19.371-8.875-19.499-19.499v-76.416c0.384-10.539 8.917-19.115 19.499-19.541v0.043zM267.776 136.448c0.128-10.624 8.832-19.328 19.499-19.499h91.861c10.667 0.171 19.371 8.875 19.499 19.499v76.416c-0.128 10.624-8.832 19.328-19.499 19.499h-92.629c-10.667-0.171-19.371-8.875-19.499-19.499v-76.459l0.768 0.043zM446.933 136.448c0.171-10.624 8.875-19.328 19.499-19.499h91.904c10.667 0.171 19.371 8.875 19.499 19.499v76.416c-0.128 10.624-8.832 19.328-19.499 19.499h-92.715c-10.624-0.171-19.328-8.875-19.456-19.499v-76.459l0.768 0.043z" />
<glyph unicode="&#xe91f;" glyph-name="calendar_add" data-tags="calendar_add" d="M810.667 725.333h-42.667v42.667c0 23.467-19.2 42.667-42.667 42.667s-42.667-19.2-42.667-42.667v-42.667h-341.333v42.667c0 23.467-19.2 42.667-42.667 42.667s-42.667-19.2-42.667-42.667v-42.667h-42.667c-47.36 0-84.907-38.4-84.907-85.333l-0.427-597.333c0-46.933 37.973-85.333 85.333-85.333h597.333c46.933 0 85.333 38.4 85.333 85.333v597.333c0 46.933-38.4 85.333-85.333 85.333zM810.667 42.667h-597.333v426.667h597.333v-426.667zM384 213.333h85.333v-85.333c0-23.467 19.2-42.667 42.667-42.667s42.667 19.2 42.667 42.667v85.333h85.333c23.467 0 42.667 19.2 42.667 42.667s-19.2 42.667-42.667 42.667h-85.333v85.333c0 23.467-19.2 42.667-42.667 42.667s-42.667-19.2-42.667-42.667v-85.333h-85.333c-23.467 0-42.667-19.2-42.667-42.667s19.2-42.667 42.667-42.667z" />
<glyph unicode="&#xe920;" glyph-name="calendar_alt" data-tags="calendar_alt" d="M834.133 727.083h-68.267v-65.152c-0.299-33.579-27.947-60.971-61.483-60.971-0.256 0-0.512 0-0.768 0h-59.733c-0.213 0-0.427 0-0.683 0-33.536 0-61.184 27.435-61.525 60.971v65.067h-139.307v-65.067c-0.299-33.579-27.947-60.971-61.483-60.971-0.256 0-0.512 0-0.768 0h-59.733c-0.256 0-0.512 0-0.768 0-33.536 0-61.184 27.392-61.525 60.971v65.067h-68.267c-0.213 0-0.469 0-0.725 0-38.485 0-70.229-31.445-70.656-69.931v-138.24c0.085-8.491 7.083-15.445 15.573-15.445 0.085 0 0.128 0 0.171 0h755.2c0.085 0 0.128 0 0.213 0 8.491 0 15.488 6.955 15.531 15.445v138.24c-0.085 38.4-31.701 69.931-70.101 69.931-0.427 0-0.853 0-1.28 0l0.384 0.085zM837.461 90.539c-0.213-18.517-15.616-33.536-34.133-33.365h-581.76c-18.475-0.171-33.877 14.848-34.133 33.365v317.099c-0.043 8.491-7.040 15.445-15.531 15.445-0.085 0-0.128 0-0.213 0h-37.333c-0.043 0-0.085 0-0.171 0-8.491 0-15.488-6.955-15.573-15.445v-317.099c0.299-55.381 45.952-100.821 101.333-100.821 0.555 0 1.109 0 1.621 0.043h581.035c0.384 0 0.725 0 1.109 0 55.467 0 101.248 45.312 101.803 100.821v317.099c-0.043 8.491-7.040 15.445-15.531 15.445-0.085 0-0.128 0-0.213 0h-36.523c-0.043 0-0.085 0-0.171 0-8.491 0-15.488-6.955-15.573-15.445l-0.043-317.141zM286.549 302.123h91.904c10.624 0.128 19.328 8.832 19.456 19.499v76.416c-0.128 10.624-8.832 19.328-19.456 19.499h-91.904c-10.667-0.171-19.371-8.875-19.499-19.499v-76.416c0.384-10.539 8.917-19.115 19.499-19.541v0.043zM645.717 302.123h91.904c10.667 0.128 19.371 8.832 19.499 19.499v76.416c-0.128 10.624-8.832 19.328-19.499 19.499h-91.904c-10.624-0.171-19.328-8.875-19.499-19.499v-76.416c0-0.085 0-0.171 0-0.256 0-10.581 8.704-19.285 19.285-19.285 0.085 0 0.171 0 0.213 0v0.043zM626.219 157.568c0.171-10.667 8.875-19.371 19.499-19.499h91.904c10.667 0.128 19.371 8.832 19.499 19.499v76.416c-0.128 10.624-8.832 19.328-19.499 19.499h-91.904c-10.624-0.171-19.328-8.875-19.499-19.499v-76.416zM465.792 302.123h91.904c10.624 0.128 19.328 8.832 19.499 19.499v76.416c-0.171 10.624-8.875 19.328-19.499 19.499h-91.904c-10.667-0.171-19.371-8.875-19.499-19.499v-76.416c0.384-10.539 8.917-19.115 19.499-19.541v0.043zM267.819 157.568c0.171-10.667 8.875-19.371 19.499-19.499h91.904c10.667 0.128 19.371 8.832 19.499 19.499v76.416c-0.128 10.624-8.832 19.328-19.499 19.499h-92.672c-10.624-0.171-19.328-8.875-19.499-19.499v-76.459l0.768 0.043zM447.061 157.568c0.128-10.667 8.832-19.371 19.499-19.499h91.861c10.667 0.128 19.371 8.832 19.499 19.499v76.416c-0.128 10.624-8.832 19.328-19.499 19.499h-92.672c-10.667-0.171-19.371-8.875-19.499-19.499v-76.459l0.811 0.043zM320.469 641.664h58.539c0.043 0 0.085 0 0.171 0 11.008 0 20.139 9.088 20.139 20.139 0 0.043 0 0.085 0 0.171v91.904c-0.043 13.355-11.051 24.363-24.405 24.405h-51.2c-13.397-0.043-24.405-11.051-24.448-24.405v-91.051c0-11.733 9.643-21.333 21.333-21.333l-0.128 0.171zM645.12 641.664h58.539c0.085 0 0.128 0 0.213 0 11.008 0 20.139 9.088 20.139 20.139 0 0.043 0 0.085-0.043 0.171v91.904c0 13.355-11.008 24.363-24.405 24.405h-51.2c-13.355-0.043-24.363-11.051-24.405-24.405v-91.051c0.384-11.563 9.813-20.992 21.333-21.333l-0.171 0.171z" />
<glyph unicode="&#xe921;" glyph-name="calendar_blank" data-tags="calendar_blank" d="M810.667 725.333h-42.667v42.667c0 23.467-19.2 42.667-42.667 42.667s-42.667-19.2-42.667-42.667v-42.667h-341.333v42.667c0 23.467-19.2 42.667-42.667 42.667s-42.667-19.2-42.667-42.667v-42.667h-42.667c-47.36 0-84.907-38.4-84.907-85.333l-0.427-597.333c0-46.933 37.973-85.333 85.333-85.333h597.333c46.933 0 85.333 38.4 85.333 85.333v597.333c0 46.933-38.4 85.333-85.333 85.333zM810.667 42.667h-597.333v426.667h597.333v-426.667z" />
<glyph unicode="&#xe922;" glyph-name="calendar_event" data-tags="calendar_event" d="M682.667 341.333h-128c-23.467 0-42.667-19.2-42.667-42.667v-128c0-23.467 19.2-42.667 42.667-42.667h128c23.467 0 42.667 19.2 42.667 42.667v128c0 23.467-19.2 42.667-42.667 42.667zM682.667 768v-42.667h-341.333v42.667c0 23.467-19.2 42.667-42.667 42.667s-42.667-19.2-42.667-42.667v-42.667h-42.667c-47.36 0-84.907-38.4-84.907-85.333l-0.427-597.333c0-46.933 37.973-85.333 85.333-85.333h597.333c46.933 0 85.333 38.4 85.333 85.333v597.333c0 46.933-38.4 85.333-85.333 85.333h-42.667v42.667c0 23.467-19.2 42.667-42.667 42.667s-42.667-19.2-42.667-42.667zM810.667 42.667h-597.333v426.667h597.333v-426.667z" />
<glyph unicode="&#xe923;" glyph-name="calendar_today" data-tags="calendar_today" d="M810.667 725.333h-42.667v42.667c0 23.467-19.2 42.667-42.667 42.667s-42.667-19.2-42.667-42.667v-42.667h-341.333v42.667c0 23.467-19.2 42.667-42.667 42.667s-42.667-19.2-42.667-42.667v-42.667h-42.667c-47.36 0-84.907-38.4-84.907-85.333l-0.427-597.333c0-46.933 37.973-85.333 85.333-85.333h597.333c46.933 0 85.333 38.4 85.333 85.333v597.333c0 46.933-38.4 85.333-85.333 85.333zM810.667 42.667h-597.333v426.667h597.333v-426.667zM341.333 384h128c23.467 0 42.667-19.2 42.667-42.667v-128c0-23.467-19.2-42.667-42.667-42.667h-128c-23.467 0-42.667 19.2-42.667 42.667v128c0 23.467 19.2 42.667 42.667 42.667z" />
<glyph unicode="&#xe924;" glyph-name="car" data-tags="car" d="M807.253 682.24c-8.533 25.173-32.427 43.093-60.587 43.093h-469.333c-28.16 0-51.627-17.92-60.587-43.093l-88.747-255.573v-320c0-35.413 28.587-64 64-64s64 28.587 64 64v21.333h512v-21.333c0-34.987 28.587-64 64-64 34.987 0 64 28.587 64 64v320l-88.747 255.573zM320 256c-35.413 0-64 28.587-64 64s28.587 64 64 64c35.413 0 64-28.587 64-64s-28.587-64-64-64zM704 256c-35.413 0-64 28.587-64 64s28.587 64 64 64c35.413 0 64-28.587 64-64s-28.587-64-64-64zM247.893 512l44.373 128h439.040l44.373-128h-527.787z" />
<glyph unicode="&#xe925;" glyph-name="chart_dashboard" data-tags="chart_dashboard" d="M854.443 725.333h-684.885c-28.501-0.512-51.627-24.235-51.413-52.736v-577.195c-0.213-28.501 22.912-52.224 51.413-52.736h684.885c28.501 0.512 51.627 24.235 51.371 52.736v576.384c0.555 28.757-22.613 52.907-51.371 53.547zM363.605 670.933c13.781-0.213 25.003-11.691 24.875-25.515 0.128-13.781-11.093-25.301-24.875-25.472-13.824 0.213-25.045 11.691-24.917 25.472 0.213 13.696 11.221 25.003 24.917 25.515zM286.464 670.933c13.781-0.213 25.003-11.691 24.875-25.515 0.171-13.781-11.093-25.301-24.875-25.472-13.824 0.213-25.003 11.691-24.917 25.472 0 0.256 0 0.512 0 0.768 0 13.568 11.179 24.747 24.747 24.747h0.171zM208.512 670.933c13.781-0.213 25.003-11.691 24.875-25.515 0.128-13.781-11.093-25.301-24.875-25.472-13.824 0.213-25.045 11.691-24.917 25.472-0.128 13.824 11.136 25.344 24.96 25.515h-0.043zM841.984 107.264h-659.968v455.68h660.053l-0.085-455.68zM800.811 411.093c-9.643 46.165-51.285 79.147-98.432 77.952-11.179-0.213-22.229-2.176-32.811-5.717l42.581-73.003h88.661v0.768zM697.216 278.997c50.773-0.597 94.933 36.181 103.509 86.272h-103.509c-6.059 0-11.733 3.115-14.976 8.192l-49.451 89.301c-26.155-19.115-41.728-49.536-42.027-81.963 1.877-56.875 49.536-102.485 106.453-101.888v0.085zM264.107 278.997c4.651 0.256 9.003 2.475 11.904 6.187l54.827 80.939 45.312-36.949c3.072-2.56 7.211-3.541 11.136-2.645 3.883 0.683 7.296 2.901 9.515 6.187l54.059 80.981 15.104-12.331c2.987-2.944 7.723-3.328 11.136-0.896 3.712 2.261 6.101 6.229 6.357 10.581l2.347 66.048c0.085 3.627-1.365 7.168-3.968 9.728-2.603 2.261-6.272 2.901-9.515 1.749l-56.448-21.12c-3.883-1.792-6.571-5.504-7.125-9.728-0.811-4.224 0.725-8.619 3.968-11.435l15.104-12.288-46.037-69.547-45.269 37.888c-3.115 2.56-7.211 3.499-11.136 2.603-3.883-0.683-7.339-2.901-9.557-6.144l-63.531-94.165c-4.651-7.381-3.328-17.109 3.157-22.912 2.517-1.792 5.547-2.688 8.619-2.645l0.043-0.085zM262.741 173.952h52.139c6.443-0.555 12.288 4.053 13.312 10.453v57.813c-1.024 6.4-6.869 11.008-13.312 10.453h-52.139c-6.485 0.555-12.331-4.053-13.312-10.453v-58.667c1.408-6.059 7.125-10.155 13.312-9.6zM419.883 305.28h-52.139c-6.699 0.213-12.544-4.821-13.312-11.477v-108.373c0.768-6.656 6.613-11.691 13.312-11.477h52.139c6.699-0.213 12.544 4.821 13.312 11.477v108.373c-0.768 6.656-6.613 11.691-13.312 11.477zM472.789 357.76c-6.869 0.213-12.757-5.077-13.312-11.947v-159.872c0.555-6.869 6.443-12.16 13.312-11.947h52.139c6.869-0.213 12.757 5.077 13.312 11.947v159.872c-0.555 6.869-6.443 12.16-13.312 11.947h-52.139zM602.88 173.952h185.771c6.912 0.427 12.331 6.357 12.117 13.269v52.181c0.213 6.912-5.205 12.843-12.117 13.269h-185.771c-6.912-0.427-12.288-6.357-12.117-13.269v-53.163c0-0.256 0-0.512 0-0.768 0-6.315 5.205-11.52 11.52-11.52 0.213 0 0.384 0.043 0.597 0.043v-0.043z" />
<glyph unicode="&#xe926;" glyph-name="check" data-tags="check" d="M786.901 626.773l-388.48-388.48-162.176 162.176c-17.835 17.877-46.72 17.877-64.555 0-17.877-17.877-17.877-46.72 0-64.597l194.219-194.219c17.877-17.877 46.72-17.877 64.597 0l420.565 420.523c17.835 17.877 17.835 47.189-0.469 65.067-16.939 17.408-45.824 17.408-63.701-0.469z" />
<glyph unicode="&#xe927;" glyph-name="check_circle_outline" data-tags="check_circle_outline" d="M512 810.667c-235.52 0-426.667-191.147-426.667-426.667s191.147-426.667 426.667-426.667c235.52 0 426.667 191.147 426.667 426.667s-191.147 426.667-426.667 426.667zM512 42.667c-188.16 0-341.333 153.173-341.333 341.333s153.173 341.333 341.333 341.333c188.16 0 341.333-153.173 341.333-341.333s-153.173-341.333-341.333-341.333zM663.040 519.68l-211.2-211.2-90.453 90.453c-16.64 16.64-43.52 16.64-60.16 0s-16.64-43.52 0-60.16l120.747-120.747c16.64-16.64 43.52-16.64 60.16 0l241.493 241.493c16.64 16.64 16.64 43.52 0 60.16-17.067 16.64-43.947 16.64-60.587 0z" />
<glyph unicode="&#xe928;" glyph-name="checkbox" data-tags="checkbox" d="M810.667 768h-597.333c-46.933 0-85.333-38.4-85.333-85.333v-597.333c0-46.933 38.4-85.333 85.333-85.333h597.333c46.933 0 85.333 38.4 85.333 85.333v597.333c0 46.933-38.4 85.333-85.333 85.333zM421.547 232.96l-120.747 120.747c-16.64 16.64-16.64 43.52 0 60.16s43.52 16.64 60.16 0l90.453-90.453 211.2 211.2c16.64 16.64 43.52 16.64 60.16 0s16.64-43.52 0-60.16l-241.493-241.493c-16.213-16.64-43.093-16.64-59.733 0z" />
<glyph unicode="&#xe929;" glyph-name="checkbox_indeterminate" data-tags="checkbox_indeterminate" horiz-adv-x="1067" d="M851.627 768h-597.333c-46.933 0-85.333-38.4-85.333-85.333v-597.333c0-46.933 38.4-85.333 85.333-85.333h597.333c46.933 0 85.333 38.4 85.333 85.333v597.333c0 46.933-38.4 85.333-85.333 85.333zM723.627 341.333h-341.333c-23.467 0-42.667 19.2-42.667 42.667s19.2 42.667 42.667 42.667h341.333c23.467 0 42.667-19.2 42.667-42.667s-19.2-42.667-42.667-42.667z" />
<glyph unicode="&#xe92a;" glyph-name="checkbox_outline" data-tags="checkbox_outline" d="M810.667 85.333h-597.333v597.333h597.333v-597.333zM810.667 768h-597.333c-46.933 0-85.333-38.4-85.333-85.333v-597.333c0-46.933 38.4-85.333 85.333-85.333h597.333c46.933 0 85.333 38.4 85.333 85.333v597.333c0 46.933-38.4 85.333-85.333 85.333z" />
<glyph unicode="&#xe92b;" glyph-name="chevron_down" data-tags="chevron_down" d="M328.96 499.627l165.547-165.547 165.547 165.547c16.64 16.64 43.52 16.64 60.16 0s16.64-43.52 0-60.16l-195.84-195.84c-16.64-16.64-43.52-16.64-60.16 0l-195.84 195.84c-16.64 16.64-16.64 43.52 0 60.16 16.64 16.213 43.947 16.64 60.587 0z" />
<glyph unicode="&#xe92c;" glyph-name="chevron_first" data-tags="chevron_first" d="M755.2 218.027l-165.547 165.973 165.973 165.973c16.64 16.64 16.64 43.52 0 60.16s-43.52 16.64-60.16 0l-195.84-195.84c-16.64-16.64-16.64-43.52 0-60.16l195.84-195.84c16.64-16.64 43.52-16.64 60.16 0 16.213 16.213 16.213 43.52-0.427 59.733zM298.667 640c23.467 0 42.667-19.2 42.667-42.667v-426.667c0-23.467-19.2-42.667-42.667-42.667s-42.667 19.2-42.667 42.667v426.667c0 23.467 19.2 42.667 42.667 42.667z" />
<glyph unicode="&#xe92d;" glyph-name="chevron_last" data-tags="chevron_last" d="M268.373 549.973l165.973-165.973-165.973-165.973c-16.64-16.64-16.64-43.52 0-60.16s43.52-16.64 60.16 0l195.84 195.84c16.64 16.64 16.64 43.52 0 60.16l-195.84 196.267c-16.64 16.64-43.52 16.64-60.16 0-16.213-16.64-16.213-43.947 0-60.16zM725.333 640c23.467 0 42.667-19.2 42.667-42.667v-426.667c0-23.467-19.2-42.667-42.667-42.667s-42.667 19.2-42.667 42.667v426.667c0 23.467 19.2 42.667 42.667 42.667z" />
<glyph unicode="&#xe92e;" glyph-name="chevron_left" data-tags="chevron_left" d="M652.373 236.373l-165.547 165.547 165.547 165.547c16.64 16.64 16.64 43.52 0 60.16s-43.52 16.64-60.16 0l-195.84-195.84c-16.64-16.64-16.64-43.52 0-60.16l195.84-195.84c16.64-16.64 43.52-16.64 60.16 0 16.213 16.64 16.64 43.947 0 60.587z" />
<glyph unicode="&#xe92f;" glyph-name="chevron_right" data-tags="chevron_right" d="M396.373 236.373l165.547 165.547-165.547 165.547c-16.64 16.64-16.64 43.52 0 60.16s43.52 16.64 60.16 0l195.84-195.84c16.64-16.64 16.64-43.52 0-60.16l-195.84-195.84c-16.64-16.64-43.52-16.64-60.16 0-16.213 16.64-16.64 43.947 0 60.587z" />
<glyph unicode="&#xe930;" glyph-name="chevron_up" data-tags="chevron_up" d="M328.96 243.627l165.547 165.547 165.547-165.547c16.64-16.64 43.52-16.64 60.16 0s16.64 43.52 0 60.16l-195.84 195.84c-16.64 16.64-43.52 16.64-60.16 0l-195.84-195.84c-16.64-16.64-16.64-43.52 0-60.16 16.64-16.213 43.947-16.64 60.587 0z" />
<glyph unicode="&#xe931;" glyph-name="clipboard_feedback" data-tags="clipboard_feedback" d="M436.552 691.323v26.46c2.294 30.966 29.532 54.682 60.539 52.675h29.86c31.007 2.048 58.245-21.668 60.498-52.634v-26.501h60.498c15.442 0.942 28.959-10.895 30.065-26.296v-26.419c-1.065-15.483-14.582-27.361-30.065-26.378h-271.892c-15.442-0.942-28.959 10.936-30.065 26.378v26.419c1.065 15.442 14.623 27.279 30.065 26.296h60.498zM708.198 664.986h30.269c30.966 1.925 58.081-21.832 60.252-52.797v-553.492c-2.089-31.007-29.286-54.804-60.293-52.838h-452.854c-31.007-1.925-58.163 21.832-60.293 52.838v553.492c2.089 31.007 29.286 54.845 60.293 52.838h30.269v-26.255c2.212-31.007 29.409-54.804 60.416-52.838h271.524c31.007-2.007 58.245 21.832 60.416 52.838v26.214zM512 691.323c7.741-0.451 14.5 5.448 15.073 13.189-0.573 7.741-7.332 13.64-15.073 13.189-7.741 0.451-14.5-5.448-15.073-13.189 0.573-7.741 7.332-13.64 15.073-13.189zM466.657 453.919v-26.337h241.377v26.337h-241.377zM315.72 480.256v-79.135h90.563v79.135h-90.563zM345.907 453.919h30.228v-26.337h-30.228v26.337zM315.72 348.447v-79.135h90.563v79.135h-90.563zM345.907 322.109h30.228v-26.337h-30.228v26.337zM466.657 322.109v-26.337h241.377v26.337h-241.377zM315.72 216.678v-79.176h90.563v79.176h-90.563zM345.907 190.3h30.228v-26.337h-30.228v26.337zM466.657 190.3v-26.337h241.377v26.337h-241.377z" />
<glyph unicode="&#xe932;" glyph-name="close" data-tags="close" d="M780.8 652.373c-16.64 16.64-43.52 16.64-60.16 0l-208.64-208.213-208.64 208.64c-16.64 16.64-43.52 16.64-60.16 0s-16.64-43.52 0-60.16l208.64-208.64-208.64-208.64c-16.64-16.64-16.64-43.52 0-60.16s43.52-16.64 60.16 0l208.64 208.64 208.64-208.64c16.64-16.64 43.52-16.64 60.16 0s16.64 43.52 0 60.16l-208.64 208.64 208.64 208.64c16.213 16.213 16.213 43.52 0 59.733z" />
<glyph unicode="&#xe933;" glyph-name="commenting" data-tags="commenting" d="M378.496 393.771c11.349 11.349 17.024 25.045 17.024 41.088s-5.675 29.739-17.024 41.088c-11.349 11.349-25.045 17.024-41.088 17.024s-29.739-5.675-41.045-17.024c-11.349-11.349-17.024-25.045-17.024-41.088s5.675-29.739 17.024-41.088c11.307-11.349 25.003-17.024 41.045-17.024s29.739 5.675 41.088 17.024zM552.789 393.771c11.349 11.349 17.024 25.045 17.024 41.088s-5.675 29.739-17.024 41.088c-11.349 11.349-25.045 17.024-41.088 17.024s-29.739-5.675-41.088-17.024c-11.349-11.349-17.024-25.045-17.024-41.088s5.675-29.739 17.024-41.088c11.349-11.349 25.045-17.024 41.088-17.024s29.739 5.675 41.088 17.024zM727.040 393.771c11.349 11.349 17.024 25.045 17.024 41.088s-5.675 29.739-17.024 41.088c-11.307 11.349-25.003 17.024-41.045 17.024s-29.739-5.675-41.088-17.024c-11.349-11.349-17.024-25.045-17.024-41.088s5.675-29.739 17.024-41.088c11.349-11.349 25.045-17.024 41.088-17.024s29.739 5.675 41.045 17.024zM863.915 580.779c36.309-44.629 54.443-93.269 54.443-145.92s-18.133-101.291-54.443-145.92c-36.309-44.629-85.632-79.872-147.968-105.728-62.336-25.899-130.432-38.827-204.245-38.827-33.28 0-65.195 2.731-95.744 8.192-52.352-52.352-118.187-86.997-197.461-103.936-15.744-3.029-28.715-4.992-39.040-5.931-3.627-0.299-6.955 0.64-9.984 2.731-3.029 2.133-4.992 4.864-5.888 8.192-1.195 4.523 1.835 10.112 9.088 16.768l22.229 20.437c2.133 2.133 5.675 5.973 10.667 11.563s8.619 10.368 10.88 14.293c2.304 3.925 5.376 9.557 9.301 16.811 3.968 7.253 6.997 14.507 9.088 21.76 2.133 7.296 4.309 15.957 6.571 26.112 2.304 10.155 4.181 21.12 5.675 32.896-44.16 27.264-78.891 59.989-104.149 98.261s-37.888 79.061-37.888 122.325c0 52.651 18.133 101.291 54.443 145.92s85.632 79.872 147.968 105.771c62.336 25.856 130.432 38.784 204.245 38.784s141.909-12.928 204.245-38.784c62.336-25.899 111.659-61.141 147.968-105.771z" />
<glyph unicode="&#xe934;" glyph-name="content_copy" data-tags="content_copy" d="M640 42.667h-426.667v554.667c0 23.467-19.2 42.667-42.667 42.667s-42.667-19.2-42.667-42.667v-554.667c0-46.933 38.4-85.333 85.333-85.333h426.667c23.467 0 42.667 19.2 42.667 42.667s-19.2 42.667-42.667 42.667zM853.333 213.333v512c0 46.933-38.4 85.333-85.333 85.333h-384c-46.933 0-85.333-38.4-85.333-85.333v-512c0-46.933 38.4-85.333 85.333-85.333h384c46.933 0 85.333 38.4 85.333 85.333zM768 213.333h-384v512h384v-512z" />
<glyph unicode="&#xe935;" glyph-name="credit_card" data-tags="credit_card" d="M853.333 725.333h-682.667c-47.36 0-84.907-37.973-84.907-85.333l-0.427-512c0-47.36 37.973-85.333 85.333-85.333h682.667c47.36 0 85.333 37.973 85.333 85.333v512c0 47.36-37.973 85.333-85.333 85.333zM853.333 128h-682.667v256h682.667v-256zM853.333 554.667h-682.667v85.333h682.667v-85.333z" />
<glyph unicode="&#xe936;" glyph-name="dashboard" data-tags="dashboard" d="M170.667 341.333h256c23.467 0 42.667 19.2 42.667 42.667v341.333c0 23.467-19.2 42.667-42.667 42.667h-256c-23.467 0-42.667-19.2-42.667-42.667v-341.333c0-23.467 19.2-42.667 42.667-42.667zM170.667 0h256c23.467 0 42.667 19.2 42.667 42.667v170.667c0 23.467-19.2 42.667-42.667 42.667h-256c-23.467 0-42.667-19.2-42.667-42.667v-170.667c0-23.467 19.2-42.667 42.667-42.667zM597.333 0h256c23.467 0 42.667 19.2 42.667 42.667v341.333c0 23.467-19.2 42.667-42.667 42.667h-256c-23.467 0-42.667-19.2-42.667-42.667v-341.333c0-23.467 19.2-42.667 42.667-42.667zM554.667 725.333v-170.667c0-23.467 19.2-42.667 42.667-42.667h256c23.467 0 42.667 19.2 42.667 42.667v170.667c0 23.467-19.2 42.667-42.667 42.667h-256c-23.467 0-42.667-19.2-42.667-42.667z" />
<glyph unicode="&#xe937;" glyph-name="delete" data-tags="delete" d="M256 85.333c0-46.933 38.4-85.333 85.333-85.333h341.333c46.933 0 85.333 38.4 85.333 85.333v512h-512v-512zM768 725.333h-106.667l-30.293 30.293c-7.68 7.68-18.773 12.373-29.867 12.373h-178.347c-11.093 0-22.187-4.693-29.867-12.373l-30.293-30.293h-106.667c-23.467 0-42.667-19.2-42.667-42.667s19.2-42.667 42.667-42.667h512c23.467 0 42.667 19.2 42.667 42.667s-19.2 42.667-42.667 42.667z" />
<glyph unicode="&#xe938;" glyph-name="desktop_mac" data-tags="desktop_mac" d="M853.333 768h-682.667c-46.933 0-85.333-38.4-85.333-85.333v-512c0-46.933 38.4-85.333 85.333-85.333h256l-55.040-55.040c-26.88-26.88-8.107-72.96 29.867-72.96h220.587c37.973 0 57.173 46.080 30.293 72.96l-55.040 55.040h256c46.933 0 85.333 38.4 85.333 85.333v512c0 46.933-38.4 85.333-85.333 85.333zM853.333 298.667h-682.667v384h682.667v-384z" />
<glyph unicode="&#xe939;" glyph-name="direction_arrow_right" data-tags="direction_arrow_right" d="M913.493 444.16l-340.907 341.333c-33.28 33.28-87.467 33.28-120.747 0l-341.76-341.333c-33.28-33.28-33.28-87.467 0-120.747l341.76-341.333c33.28-33.28 87.467-33.28 120.747 0l340.907 341.333c33.707 33.707 33.707 87.467 0 120.747zM710.4 411.733l-97.707-97.707c-13.653-13.653-36.267-3.84-36.267 14.933v55.040h-149.76v-85.333c0-23.467-19.2-42.667-42.667-42.667s-42.667 19.2-42.667 42.667v128c0 23.467 19.2 42.667 42.667 42.667h192v55.040c0 19.2 23.040 28.587 36.267 14.933l97.707-97.707c8.533-8.107 8.533-21.76 0.427-29.867z" />
<glyph unicode="&#xe93a;" glyph-name="download" data-tags="download" d="M700.006 511.058h-65.126v204.8c0 22.528-18.432 40.96-40.96 40.96h-163.84c-22.528 0-40.96-18.432-40.96-40.96v-204.8h-65.126c-36.454 0-54.886-44.237-29.082-70.042l188.006-188.006c15.974-15.974 41.779-15.974 57.754 0l188.006 188.006c25.805 25.805 7.782 70.042-28.672 70.042zM225.28 101.458c0-22.528 18.432-40.96 40.96-40.96h491.52c22.528 0 40.96 18.432 40.96 40.96s-18.432 40.96-40.96 40.96h-491.52c-22.528 0-40.96-18.432-40.96-40.96z" />
<glyph unicode="&#xe93b;" glyph-name="envelope" data-tags="envelope" d="M853.333 725.333h-682.667c-46.933 0-84.907-38.4-84.907-85.333l-0.427-512c0-46.933 38.4-85.333 85.333-85.333h682.667c46.933 0 85.333 38.4 85.333 85.333v512c0 46.933-38.4 85.333-85.333 85.333zM836.267 544l-301.653-188.587c-13.653-8.533-31.573-8.533-45.227 0l-301.653 188.587c-10.667 6.827-17.067 18.347-17.067 30.72 0 28.587 31.147 45.653 55.467 30.72l285.867-178.773 285.867 178.773c24.32 14.933 55.467-2.133 55.467-30.72 0-12.373-6.4-23.893-17.067-30.72z" />
<glyph unicode="&#xe93c;" glyph-name="envelope_alt" data-tags="envelope_alt" d="M139.136 640c-18.56 0-33.664-15.061-33.664-33.664 0-92.971 0-352.469 0-445.013 0-8.832 3.541-17.323 9.771-23.552 6.229-6.272 14.72-9.771 23.552-9.771 131.541 0 614.016 0 746.112 0 8.917 0 17.451 3.541 23.765 9.856s9.856 14.848 9.856 23.765c0 93.013 0 353.067 0 445.355 0 18.261-14.805 33.024-33.024 33.024h-746.368zM531.584 360.704l-243.541 186.197h489.387l-245.845-186.197zM334.165 392.576l-153.941-124.971v232.747l153.941-107.776zM428.928 337.408l70.485-48.469c9.344-6.144 20.309-9.515 31.531-9.685 11.221 0.171 22.144 3.541 31.488 9.685l63.104 44.629 140.715-112.512h-482.901l145.579 116.352zM689.877 393.259l170.496 107.221v-232.747l-170.496 125.525z" />
<glyph unicode="&#xe93d;" glyph-name="envelope_open" data-tags="envelope_open" horiz-adv-x="1067" d="M962.048 518.656c0 30.72-16.213 57.6-40.533 72.533l-343.040 200.96c-26.453 15.787-59.733 15.787-86.187 0l-343.040-200.96c-24.32-14.933-40.533-41.813-40.533-72.533v-469.333c0-46.933 38.4-85.333 85.333-85.333h682.667c46.933 0 85.333 38.4 85.333 85.333v469.333zM490.155 333.483l-307.2 192 330.667 193.707c13.227 7.68 29.867 7.68 43.093 0l330.667-193.707-307.2-192c-27.307-17.067-62.293-17.067-90.027 0z" />
<glyph unicode="&#xe93e;" glyph-name="error_circle" data-tags="error_circle" d="M512 810.667c-235.52 0-426.667-191.147-426.667-426.667s191.147-426.667 426.667-426.667c235.52 0 426.667 191.147 426.667 426.667s-191.147 426.667-426.667 426.667zM512 341.333c-23.467 0-42.667 19.2-42.667 42.667v170.667c0 23.467 19.2 42.667 42.667 42.667s42.667-19.2 42.667-42.667v-170.667c0-23.467-19.2-42.667-42.667-42.667zM512 170.667c-23.467 0-42.667 19.2-42.667 42.667s19.2 42.667 42.667 42.667c23.467 0 42.667-19.2 42.667-42.667s-19.2-42.667-42.667-42.667z" />
<glyph unicode="&#xe93f;" glyph-name="explore" data-tags="explore" d="M512 426.667c-23.467 0-42.667-19.2-42.667-42.667s19.2-42.667 42.667-42.667c23.467 0 42.667 19.2 42.667 42.667s-19.2 42.667-42.667 42.667zM512 810.667c-235.52 0-426.667-191.147-426.667-426.667s191.147-426.667 426.667-426.667c235.52 0 426.667 191.147 426.667 426.667s-191.147 426.667-426.667 426.667zM591.36 284.16l-282.453-131.413c-17.92-8.533-36.693 10.24-28.16 28.16l131.413 282.453c4.267 8.96 11.52 16.64 20.48 20.48l282.453 131.413c17.92 8.533 36.693-10.24 28.16-28.16l-131.413-282.453c-4.267-8.96-11.52-16.213-20.48-20.48z" />
<glyph unicode="&#xe940;" glyph-name="facebook" data-tags="facebook" d="M689.237 720.427v-108.331h-64.427c-23.509 0-39.381-4.907-47.573-14.763s-12.331-24.619-12.331-44.288v-77.568h120.235l-16-121.429h-104.235v-311.381h-125.525v311.381h-104.619v121.429h104.619v89.429c0 50.901 14.208 90.325 42.667 118.357s66.347 42.069 113.664 42.069c40.192 0 71.381-1.621 93.525-4.907z" />
<glyph unicode="&#xe941;" glyph-name="favorite" data-tags="favorite" d="M455.253 51.2c-235.52 211.2-372.053 325.973-369.92 485.973 1.707 126.72 98.133 187.307 100.267 189.013 154.027 104.96 293.973-9.387 326.4-47.36 32 37.547 170.24 149.76 322.56 49.493 22.187-14.507 95.147-70.4 103.253-175.787 13.653-182.613-176.64-331.093-369.067-501.76-16.213-14.507-36.693-21.333-57.173-21.333-20.053 0-40.107 7.253-56.32 21.76z" />
<glyph unicode="&#xe942;" glyph-name="favorite_border" data-tags="favorite_border" d="M838.827 725.76c-112.64 76.8-251.733 40.96-326.827-46.933-75.093 87.893-214.187 124.16-326.827 46.933-59.733-40.96-97.28-110.080-99.84-183.040-5.973-165.547 140.8-298.24 364.8-501.76l4.267-3.84c32.427-29.44 82.347-29.44 114.773 0.427l4.693 4.267c224 203.093 370.347 335.787 364.8 501.333-2.56 72.533-40.107 141.653-99.84 182.613zM516.267 104.533l-4.267-4.267-4.267 4.267c-203.093 183.893-337.067 305.493-337.067 428.8 0 85.333 64 149.333 149.333 149.333 65.707 0 129.707-42.24 152.32-100.693h79.787c22.187 58.453 86.187 100.693 151.893 100.693 85.333 0 149.333-64 149.333-149.333 0-123.307-133.973-244.907-337.067-428.8z" />
<glyph unicode="&#xe943;" glyph-name="file" data-tags="file" d="M256 810.667c-46.933 0-84.907-38.4-84.907-85.333l-0.427-682.667c0-46.933 37.973-85.333 84.907-85.333h512.427c46.933 0 85.333 38.4 85.333 85.333v476.587c0 22.613-8.96 44.373-25.173 60.16l-206.080 206.080c-15.787 16.213-37.547 25.173-60.16 25.173h-305.92zM554.667 554.667v192l234.667-234.667h-192c-23.467 0-42.667 19.2-42.667 42.667z" />
<glyph unicode="&#xe944;" glyph-name="file_text" data-tags="file_text" d="M622.507 785.493c-16.213 16.213-37.973 25.173-60.587 25.173h-305.92c-46.933 0-85.333-38.4-85.333-85.333v-682.667c0-46.933 37.973-85.333 84.907-85.333h512.427c46.933 0 85.333 38.4 85.333 85.333v476.587c0 22.613-8.96 44.373-25.173 60.16l-205.653 206.080zM640 128h-256c-23.467 0-42.667 19.2-42.667 42.667s19.2 42.667 42.667 42.667h256c23.467 0 42.667-19.2 42.667-42.667s-19.2-42.667-42.667-42.667zM640 298.667h-256c-23.467 0-42.667 19.2-42.667 42.667s19.2 42.667 42.667 42.667h256c23.467 0 42.667-19.2 42.667-42.667s-19.2-42.667-42.667-42.667zM554.667 554.667v192l234.667-234.667h-192c-23.467 0-42.667 19.2-42.667 42.667z" />
<glyph unicode="&#xe945;" glyph-name="filter_alt" data-tags="filter_alt" d="M179.627 656.64c86.187-110.507 247.040-315.307 247.040-315.307v-213.333c0-46.933 38.4-85.333 85.333-85.333s85.333 38.4 85.333 85.333v213.333c0 0 160.853 204.8 247.040 315.307 21.76 28.16 1.707 68.693-33.707 68.693h-597.333c-35.413 0-55.467-40.533-33.707-68.693z" />
<glyph unicode="&#xe946;" glyph-name="filter_list" data-tags="filter_list" d="M469.333 128h85.333c23.467 0 42.667 19.2 42.667 42.667s-19.2 42.667-42.667 42.667h-85.333c-23.467 0-42.667-19.2-42.667-42.667s19.2-42.667 42.667-42.667zM128 597.333c0-23.467 19.2-42.667 42.667-42.667h682.667c23.467 0 42.667 19.2 42.667 42.667s-19.2 42.667-42.667 42.667h-682.667c-23.467 0-42.667-19.2-42.667-42.667zM298.667 341.333h426.667c23.467 0 42.667 19.2 42.667 42.667s-19.2 42.667-42.667 42.667h-426.667c-23.467 0-42.667-19.2-42.667-42.667s19.2-42.667 42.667-42.667z" />
<glyph unicode="&#xe947;" glyph-name="flag" data-tags="flag" d="M614.4 640l-10.24 51.2c-3.84 19.627-21.333 34.133-41.813 34.133h-306.347c-23.467 0-42.667-19.2-42.667-42.667v-640c0-23.467 19.2-42.667 42.667-42.667s42.667 19.2 42.667 42.667v256h238.933l10.24-51.2c3.84-20.053 21.333-34.133 41.813-34.133h221.013c23.467 0 42.667 19.2 42.667 42.667v341.333c0 23.467-19.2 42.667-42.667 42.667h-196.267z" />
<glyph unicode="&#xe948;" glyph-name="flag_border" data-tags="flag_border" d="M608.256 640c-6.699 0-12.8 3.797-15.829 9.771-6.229 12.459-17.195 34.475-25.728 51.499-7.381 14.763-22.443 24.064-38.912 24.064-59.221 0-201.259 0-272.384 0-11.136 0-21.845-4.437-29.739-12.331s-12.331-18.603-12.331-29.739c0-128.427 0-514.176 0-641.792 0-22.912 18.56-41.472 41.472-41.472 0.768 0 1.536 0 2.304 0 22.955 0 41.557 18.603 41.557 41.557 0 66.816 0 195.157 0 240.64 0 9.088 7.381 16.469 16.469 16.469 42.197 0 153.301 0 187.008 0 6.059 0 11.563-3.413 14.251-8.832 6.272-12.544 18.005-36.011 26.837-53.632 6.997-14.037 21.333-22.869 36.992-22.869 51.541 0 168.32 0 231.168 0 11.136 0 21.803 4.437 29.653 12.288s12.288 18.517 12.288 29.653c0 81.877 0 262.144 0 343.467 0 22.784-18.475 41.259-41.259 41.259-60.288 0-169.131 0-203.819 0zM768 317.653c0-5.035-2.005-9.856-5.547-13.44-3.584-3.541-8.405-5.547-13.44-5.547-36.48 0-115.115 0-142.251 0-5.76 0-11.051 3.285-13.653 8.448-6.272 12.544-18.304 36.651-27.264 54.528-6.869 13.696-20.864 22.357-36.181 22.357-52.523 0-173.184 0-215.765 0-8.405 0-15.232 6.827-15.232 15.232 0 45.099 0 177.707 0 224.341 0 9.088 7.339 16.427 16.427 16.427 42.069 0 152.747 0 186.795 0 6.187 0 11.861-3.499 14.635-9.045 6.187-12.373 17.536-35.029 26.24-52.48 7.296-14.592 22.229-23.808 38.528-23.808 44.971 0 134.528 0 170.88 0 8.747 0 15.829-7.083 15.829-15.829 0-44.885 0-172.672 0-221.184z" />
<glyph unicode="&#xe949;" glyph-name="format_list_bulleted" data-tags="format_list_bulleted" d="M170.667 448c-35.413 0-64-28.587-64-64s28.587-64 64-64c35.413 0 64 28.587 64 64s-28.587 64-64 64zM170.667 704c-35.413 0-64-28.587-64-64s28.587-64 64-64c35.413 0 64 28.587 64 64s-28.587 64-64 64zM170.667 192c-35.413 0-64-29.013-64-64s29.013-64 64-64c34.987 0 64 29.013 64 64s-28.587 64-64 64zM341.333 85.333h512c23.467 0 42.667 19.2 42.667 42.667s-19.2 42.667-42.667 42.667h-512c-23.467 0-42.667-19.2-42.667-42.667s19.2-42.667 42.667-42.667zM341.333 341.333h512c23.467 0 42.667 19.2 42.667 42.667s-19.2 42.667-42.667 42.667h-512c-23.467 0-42.667-19.2-42.667-42.667s19.2-42.667 42.667-42.667zM298.667 640c0-23.467 19.2-42.667 42.667-42.667h512c23.467 0 42.667 19.2 42.667 42.667s-19.2 42.667-42.667 42.667h-512c-23.467 0-42.667-19.2-42.667-42.667z" />
<glyph unicode="&#xe94a;" glyph-name="forum" data-tags="forum" d="M853.333 640h-42.667v-384h-554.667v-42.667c0-46.933 38.4-85.333 85.333-85.333h426.667l134.4-134.4c13.227-13.227 36.267-3.84 36.267 14.933v546.133c0 46.933-38.4 85.333-85.333 85.333zM725.333 426.667v298.667c0 46.933-38.4 85.333-85.333 85.333h-469.333c-46.933 0-85.333-38.4-85.333-85.333v-503.040c0-19.2 23.040-28.587 36.267-14.933l134.4 133.973h384c46.933 0 85.333 38.4 85.333 85.333z" />
<glyph unicode="&#xe94b;" glyph-name="forward" data-tags="forward" horiz-adv-x="1067" d="M886.187 456.96l-153.173 153.173c-26.453 26.453-72.533 7.68-72.533-30.293v-110.507h-298.667c-117.76 0-213.333-95.573-213.333-213.333v-128c0-23.467 19.2-42.667 42.667-42.667s42.667 19.2 42.667 42.667v128c0 70.4 57.6 128 128 128h298.667v-110.507c0-37.973 46.080-57.173 72.96-30.293l153.173 153.173c16.213 16.64 16.213 43.947-0.427 60.587z" />
<glyph unicode="&#xe94c;" glyph-name="google" data-tags="google" d="M518.869 432.896h322.261c3.541-19.84 5.333-38.827 5.333-56.875 0-64.299-13.483-121.728-40.448-172.245s-65.408-89.984-115.371-118.443c-49.92-28.459-107.179-42.667-171.776-42.667-46.507 0-90.795 8.96-132.864 26.88s-78.379 42.155-108.885 72.661c-30.507 30.549-54.741 66.816-72.661 108.885-17.92 42.112-26.923 86.4-26.923 132.907s9.003 90.795 26.923 132.907c17.92 42.069 42.155 78.336 72.661 108.885 30.507 30.507 66.816 54.741 108.885 72.661s86.357 26.88 132.864 26.88c88.917 0 165.205-29.781 228.907-89.344l-92.885-89.301c-36.437 35.243-81.792 52.864-136.021 52.864-38.187 0-73.557-9.643-105.984-28.885s-58.155-45.397-77.099-78.464c-18.987-33.024-28.459-69.077-28.459-108.203s9.472-75.179 28.459-108.203c18.944-33.067 44.672-59.221 77.099-78.464s67.797-28.885 105.984-28.885c25.813 0 49.493 3.541 71.125 10.667s39.424 16 53.333 26.667c13.952 10.667 26.069 22.827 36.437 36.437 10.368 13.653 18.005 26.539 22.912 38.656 4.864 12.16 8.192 23.723 9.984 34.688h-193.792v117.333z" />
<glyph unicode="&#xe94d;" glyph-name="groups" data-tags="groups" horiz-adv-x="1067" d="M518.571 400c57.941 0 109.141-13.867 150.741-32 38.4-17.067 62.592-55.467 62.592-97.067v-107.392c0-19.541-16-35.541-35.584-35.541h-355.541c-19.541 0-35.541 16-35.541 35.541v107.051c0 41.941 24.149 80.341 62.549 97.067 41.6 18.475 92.8 32.341 150.784 32.341zM234.112 391.125c39.125 0 71.125 32 71.125 71.083 0 39.125-32 71.125-71.125 71.125s-71.125-32-71.125-71.125c0-39.083 32-71.083 71.125-71.083zM274.304 352c-13.184 2.133-26.325 3.541-40.192 3.541-35.2 0-68.608-7.467-98.859-20.608-26.283-11.392-43.349-36.992-43.349-65.792v-105.6c0-19.541 16-35.541 35.541-35.541h124.459v142.592c0 29.483 8.149 57.216 22.4 81.408zM802.987 391.125c39.125 0 71.125 32 71.125 71.083 0 39.125-32 71.125-71.125 71.125-39.083 0-71.083-32-71.083-71.125 0-39.083 32-71.083 71.083-71.083zM945.237 269.141c0 28.8-17.067 54.4-43.392 65.792-30.208 13.141-63.659 20.608-98.859 20.608-13.867 0-27.008-1.408-40.149-3.541 14.208-24.192 22.4-51.925 22.4-81.408v-142.592h124.416c19.584 0 35.584 16 35.584 35.541v105.6zM518.571 640c59.008 0 106.667-47.659 106.667-106.667s-47.659-106.667-106.667-106.667c-59.051 0-106.667 47.659-106.667 106.667s47.616 106.667 106.667 106.667z" />
<glyph unicode="&#xe94e;" glyph-name="headset_mic" data-tags="headset_mic" horiz-adv-x="1067" d="M526.635 810.667c-212.053 0-384-171.947-384-384v-298.667c0-46.933 38.4-85.333 85.333-85.333h85.333c46.933 0 85.333 38.4 85.333 85.333v170.667c0 46.933-38.4 85.333-85.333 85.333h-85.333v42.667c0 165.12 133.547 298.667 298.667 298.667s298.667-133.547 298.667-298.667v-42.667h-85.333c-46.933 0-85.333-38.4-85.333-85.333v-170.667c0-46.933 38.4-85.333 85.333-85.333h85.333v-42.667h-256c-23.467 0-42.667-19.2-42.667-42.667s19.2-42.667 42.667-42.667h256c46.933 0 85.333 38.4 85.333 85.333v426.667c0 212.053-171.947 384-384 384z" />
<glyph unicode="&#xe94f;" glyph-name="help_circle" data-tags="help_circle" d="M512 810.667c-235.52 0-426.667-191.147-426.667-426.667s191.147-426.667 426.667-426.667c235.52 0 426.667 191.147 426.667 426.667s-191.147 426.667-426.667 426.667zM505.6 128c-29.867 0-53.76 23.893-53.76 53.76 0 30.293 23.893 53.333 53.76 53.333 30.293 0 53.333-23.040 53.333-53.333 0-29.44-23.040-53.76-53.333-53.76zM634.027 443.733c-32.427-47.36-63.147-62.293-79.787-92.587-3.84-7.253-6.4-13.227-8.107-25.173-2.56-19.627-18.347-34.987-38.4-34.987h-1.707c-22.613 0-40.533 19.2-38.4 41.813 1.28 14.080 4.693 29.013 12.8 42.667 20.907 37.12 60.587 59.307 83.627 92.16 24.32 34.56 10.667 99.413-58.453 99.413-31.573 0-51.627-16.64-64.427-36.267-9.387-14.507-29.013-19.627-45.653-12.8-21.333 8.96-30.72 35.413-17.493 55.040 26.027 38.827 69.547 66.987 126.72 66.987 63.147 0 106.24-28.587 128.427-64.853 18.773-30.72 29.867-88.32 0.853-131.413z" />
<glyph unicode="&#xe950;" glyph-name="hoa" data-tags="hoa" d="M932.864 611.115v-454.229c0-15.957-12.928-28.885-28.885-28.885h-784.555c-15.957 0-28.885 12.928-28.885 28.885v454.229c0 15.957 12.928 28.885 28.885 28.885h784.555c15.957 0 28.885-12.928 28.885-28.885zM148.352 582.187v-396.373h726.699v396.373h-726.699zM223.189 280.789v206.891h41.771v-81.451h81.877v81.451h41.771v-206.891h-41.771v90.453h-81.877v-90.453h-41.771zM423.296 382.933c0 21.077 3.157 38.784 9.472 53.077 4.693 10.539 11.136 20.011 19.285 28.373 8.107 8.363 17.024 14.592 26.709 18.645 12.885 5.461 27.776 8.149 44.629 8.149 30.464 0 54.869-9.429 73.173-28.331 18.304-18.944 27.435-45.227 27.435-78.891 0-33.408-9.088-59.563-27.221-78.421-18.176-18.859-42.453-28.288-72.832-28.288-30.763 0-55.253 9.387-73.387 28.16-18.176 18.773-27.264 44.629-27.264 77.525zM466.347 384.384c0-23.467 5.419-41.216 16.256-53.291 10.795-12.075 24.533-18.133 41.216-18.133 16.64 0 30.293 5.973 40.96 18.005 10.709 11.989 16.043 29.952 16.043 53.973 0 23.68-5.205 41.387-15.616 53.035-10.368 11.691-24.192 17.536-41.387 17.536-17.237 0-31.104-5.931-41.643-17.707-10.539-11.819-15.829-29.653-15.829-53.419zM843.179 280.789h-45.44l-18.091 46.976h-82.688l-17.067-46.976h-44.331l80.597 206.891h44.16l82.859-206.891zM766.251 362.624l-28.501 76.8-27.947-76.8h56.448z" />
<glyph unicode="&#xe951;" glyph-name="home" data-tags="home" d="M404.053 0c4.651 0 9.131 1.835 12.459 5.163 3.285 3.285 5.12 7.765 5.12 12.416 0 49.408 0 188.885 0 236.928 0 9.131 7.424 16.555 16.555 16.555 34.816 0 115.243 0 148.907 0 8.448 0 15.275-6.827 15.275-15.275 0-46.677 0-187.52 0-237.739 0-9.984 8.064-18.048 18.048-18.048 42.965 0 150.784 0 191.701 0 8.917 0 16.128 7.211 16.128 16.128 0 70.101 0 345.301 0 345.301h91.264c7.040 0 13.355 4.309 15.872 10.88s0.725 13.995-4.523 18.731c-91.819 82.645-348.075 313.259-406.784 366.080-6.869 6.187-17.28 6.187-24.149 0-59.221-53.291-319.488-287.531-409.173-368.256-4.864-4.352-6.528-11.264-4.181-17.365 2.347-6.059 8.192-10.069 14.72-10.069 26.795 0 60.288 0 79.317 0 8.363 0 15.147-6.784 15.147-15.147 0-58.837 0-271.787 0-330.965 0-4.053 1.621-7.936 4.523-10.837 2.859-2.859 6.741-4.48 10.837-4.48 40.448 0 150.016 0 192.939 0z" />
<glyph unicode="&#xe952;" glyph-name="home_plus" data-tags="home_plus" d="M195.755 16.043c0-4.224 1.707-8.32 4.693-11.349 3.029-2.987 7.125-4.693 11.392-4.693 87.424 0 505.899 0 598.315 0 4.779 0 9.387 1.92 12.8 5.291 3.371 3.413 5.291 8.021 5.291 12.8 0 62.123 0 266.197 0 326.443 0 9.301 7.552 16.896 16.896 16.896 19.243 0 51.456 0 77.483 0 6.528 0 12.373 4.011 14.72 10.112s0.683 13.013-4.181 17.408c-90.368 81.323-353.323 317.995-410.197 369.195-6.229 5.589-15.701 5.589-21.931 0-57.131-51.413-322.048-289.877-411.349-370.219-4.651-4.224-6.272-10.88-4.011-16.768 2.261-5.845 7.893-9.728 14.208-9.728h78.208c9.771 0 17.664-7.936 17.664-17.707 0-61.952 0-268.373 0-327.68zM466.816 338.816v135.552c0 24.917 20.267 45.141 45.184 45.141s45.184-20.224 45.184-45.141v-135.552h135.509c24.96 0 45.184-20.224 45.184-45.184 0-24.917-20.224-45.141-45.184-45.141h-135.509v-135.552c0-24.917-20.267-45.184-45.184-45.184s-45.184 20.267-45.184 45.184v135.552h-135.509c-24.96 0-45.184 20.224-45.184 45.141 0 24.96 20.224 45.184 45.184 45.184h135.509z" />
<glyph unicode="&#xe953;" glyph-name="home_work" data-tags="home_work" d="M358.869 645.931c-6.229 4.181-14.336 4.181-20.565 0-47.36-31.573-243.797-162.517-287.147-191.403-5.291-3.541-8.491-9.515-8.491-15.872 0-58.027 0-346.197 0-420.949 0-4.693 1.877-9.173 5.205-12.501s7.808-5.205 12.501-5.205c40.064 0 137.216 0 177.579 0 4.779 0 9.387 1.92 12.757 5.291s5.291 7.979 5.291 12.757c0 59.733 0 250.411 0 307.2 0 8.875 7.211 16.085 16.085 16.085 32.555 0 105.771 0 138.411 0 4.267 0 8.405-1.707 11.435-4.736s4.736-7.168 4.736-11.435c0-57.472 0-251.136 0-308.821 0-4.352 1.707-8.491 4.779-11.563s7.211-4.779 11.563-4.779c40.192 0 143.403 0 182.059 0 8.235 0 14.933 6.699 14.933 14.933 0 71.595 0 378.581 0 434.859 0 5.547-2.773 10.709-7.381 13.781-39.723 26.453-227.541 151.595-273.749 182.357zM445.312 768c-4.949 0-9.685-1.963-13.184-5.461s-5.461-8.235-5.461-13.184c0-12.245 0-27.691 0-37.163 0-5.376 2.688-10.411 7.211-13.397 20.565-13.696 78.123-51.968 78.123-51.968l73.813-49.493h54.187v-36.267l85.333-57.173v-60.885c0-4.352 1.707-8.491 4.779-11.563s7.211-4.779 11.563-4.779c24.747 0 68.992 0 68.992 0v-85.333h-67.669c-4.651 0-9.173-1.877-12.501-5.163-3.285-3.328-5.163-7.851-5.163-12.501v-52.053c0-4.139 1.664-8.107 4.565-11.051 2.944-2.901 6.912-4.565 11.051-4.565h69.717v-85.333h-70.059c-8.448 0-15.275-6.827-15.275-15.275 0-31.659 0-104.448 0-137.941 0-4.651 1.835-9.088 5.12-12.331 3.243-3.285 7.68-5.12 12.331-5.12 46.421 0 172.757 0 220.203 0 10.112 0 18.347 8.235 18.347 18.347 0 105.557 0 633.984 0 733.483 0 8.917-7.253 16.171-16.171 16.171-80.128 0-434.261 0-519.851 0zM810.667 512h-85.333v85.333h85.333v-85.333z" />
<glyph unicode="&#xe954;" glyph-name="info_circle" data-tags="info_circle" d="M512 810.667c-235.52 0-426.667-191.147-426.667-426.667s191.147-426.667 426.667-426.667c235.52 0 426.667 191.147 426.667 426.667s-191.147 426.667-426.667 426.667zM512 170.667c-23.467 0-42.667 19.2-42.667 42.667v170.667c0 23.467 19.2 42.667 42.667 42.667s42.667-19.2 42.667-42.667v-170.667c0-23.467-19.2-42.667-42.667-42.667zM512 512c-23.467 0-42.667 19.2-42.667 42.667s19.2 42.667 42.667 42.667c23.467 0 42.667-19.2 42.667-42.667s-19.2-42.667-42.667-42.667z" />
<glyph unicode="&#xe955;" glyph-name="instagram" data-tags="instagram" d="M592.427 303.573c22.229 22.187 33.365 49.024 33.365 80.427s-11.136 58.24-33.365 80.427c-22.187 22.229-49.024 33.365-80.427 33.365s-58.24-11.136-80.427-33.365c-22.229-22.187-33.365-49.024-33.365-80.427s11.136-58.24 33.365-80.427c22.187-22.229 49.024-33.365 80.427-33.365s58.24 11.136 80.427 33.365zM635.989 507.989c34.091-34.048 51.115-75.392 51.115-123.989s-17.024-89.941-51.115-123.989c-34.048-34.091-75.392-51.115-123.989-51.115s-89.941 17.024-123.989 51.115c-34.091 34.048-51.115 75.392-51.115 123.989s17.024 89.941 51.115 123.989c34.048 34.091 75.392 51.115 123.989 51.115s89.941-17.024 123.989-51.115zM723.115 595.115c7.979-8.021 11.989-17.621 11.989-28.885s-4.011-20.907-11.989-28.885c-8.021-8.021-17.621-12.032-28.885-12.032s-20.907 4.011-28.885 12.032c-8.021 7.979-11.989 17.621-11.989 28.885s3.968 20.864 11.989 28.885c7.979 7.979 17.621 11.989 28.885 11.989s20.864-4.011 28.885-11.989zM546.005 664.235c-20.608-0.171-31.915-0.256-34.005-0.256s-13.397 0.085-34.005 0.256c-20.608 0.128-36.224 0.128-46.891 0-10.667-0.171-24.96-0.597-42.88-1.365-17.92-0.725-33.195-2.219-45.781-4.437s-23.168-4.949-31.787-8.192c-14.805-5.931-27.861-14.549-39.083-25.813-11.264-11.221-19.883-24.277-25.813-39.083-3.243-8.619-5.973-19.2-8.192-31.787s-3.712-27.861-4.437-45.781c-0.768-17.92-1.195-32.213-1.365-42.88-0.128-10.667-0.128-26.283 0-46.891 0.171-20.608 0.213-31.915 0.213-34.005s-0.043-13.397-0.213-34.005c-0.128-20.608-0.128-36.224 0-46.891 0.171-10.667 0.597-24.96 1.365-42.88 0.725-17.92 2.219-33.195 4.437-45.781s4.949-23.168 8.192-31.787c5.931-14.805 14.549-27.861 25.813-39.083 11.221-11.264 24.277-19.883 39.083-25.813 8.619-3.243 19.2-5.973 31.787-8.192s27.861-3.712 45.781-4.437c17.92-0.768 32.213-1.195 42.88-1.365 10.667-0.128 26.283-0.128 46.891 0 20.608 0.171 31.915 0.213 34.005 0.213s13.397-0.043 34.005-0.213c20.608-0.128 36.224-0.128 46.891 0 10.667 0.171 24.96 0.597 42.88 1.365 17.92 0.725 33.195 2.219 45.781 4.437s23.168 4.949 31.787 8.192c14.805 5.931 27.861 14.549 39.083 25.813 11.264 11.221 19.883 24.277 25.813 39.083 3.243 8.619 5.973 19.2 8.192 31.787s3.712 27.861 4.437 45.781c0.768 17.92 1.195 32.213 1.365 42.88 0.128 10.667 0.128 26.283 0 46.891-0.171 20.608-0.213 31.915-0.213 34.005s0.043 13.397 0.213 34.005c0.128 20.608 0.128 36.224 0 46.891-0.171 10.667-0.597 24.96-1.365 42.88-0.725 17.92-2.219 33.195-4.437 45.781s-4.949 23.168-8.192 31.787c-5.931 14.805-14.549 27.861-25.813 39.083-11.221 11.264-24.277 19.883-39.083 25.813-8.619 3.243-19.2 5.973-31.787 8.192s-27.861 3.712-45.781 4.437c-17.92 0.768-32.213 1.195-42.88 1.365-10.667 0.128-26.283 0.128-46.891 0zM851.115 524.885c1.493-26.069 2.219-73.045 2.219-140.885s-0.725-114.816-2.219-140.885c-2.987-61.653-21.333-109.355-55.125-143.104-33.749-33.792-81.451-52.139-143.104-55.125-26.069-1.493-73.045-2.219-140.885-2.219s-114.816 0.725-140.885 2.219c-61.653 2.987-109.355 21.333-143.104 55.125-33.792 33.749-52.139 81.451-55.125 143.104-1.493 26.069-2.219 73.045-2.219 140.885s0.725 114.816 2.219 140.885c2.987 61.653 21.333 109.355 55.125 143.104 33.749 33.792 81.451 52.139 143.104 55.125 26.069 1.493 73.045 2.219 140.885 2.219s114.816-0.725 140.885-2.219c61.653-2.987 109.355-21.333 143.104-55.125 33.792-33.749 52.139-81.451 55.125-143.104z" />
<glyph unicode="&#xe956;" glyph-name="key_vpn" data-tags="key_vpn" d="M538.624 470.098c-38.912 110.182-153.6 184.32-281.805 158.925-93.798-18.842-169.984-93.798-189.645-187.597-33.587-158.515 86.835-299.008 240.026-299.008 106.906 0 197.837 68.403 231.424 163.84h178.176v-81.92c0-45.056 36.864-81.92 81.92-81.92s81.92 36.864 81.92 81.92v81.92c45.056 0 81.92 36.864 81.92 81.92s-36.864 81.92-81.92 81.92h-342.016zM307.2 306.258c-45.056 0-81.92 36.864-81.92 81.92s36.864 81.92 81.92 81.92c45.056 0 81.92-36.864 81.92-81.92s-36.864-81.92-81.92-81.92z" />
<glyph unicode="&#xe957;" glyph-name="language_globe" data-tags="language_globe" d="M511.573 810.667c-235.52 0-426.24-191.147-426.24-426.667s190.72-426.667 426.24-426.667c235.947 0 427.093 191.147 427.093 426.667s-191.147 426.667-427.093 426.667zM807.253 554.667h-125.867c-13.653 53.333-33.28 104.533-58.88 151.893 78.507-26.88 143.787-81.493 184.747-151.893zM512 723.627c35.413-51.2 63.147-107.947 81.493-168.96h-162.987c18.347 61.013 46.080 117.76 81.493 168.96zM181.76 298.667c-6.827 27.307-11.093 55.893-11.093 85.333s4.267 58.027 11.093 85.333h144.213c-3.413-28.16-5.973-56.32-5.973-85.333s2.56-57.173 5.973-85.333h-144.213zM216.747 213.333h125.867c13.653-53.333 33.28-104.533 58.88-151.893-78.507 26.88-143.787 81.067-184.747 151.893zM342.613 554.667h-125.867c40.96 70.827 106.24 125.013 184.747 151.893-25.6-47.36-45.227-98.56-58.88-151.893zM512 44.373c-35.413 51.2-63.147 107.947-81.493 168.96h162.987c-18.347-61.013-46.080-117.76-81.493-168.96zM611.84 298.667h-199.68c-3.84 28.16-6.827 56.32-6.827 85.333s2.987 57.6 6.827 85.333h199.68c3.84-27.733 6.827-56.32 6.827-85.333s-2.987-57.173-6.827-85.333zM622.507 61.44c25.6 47.36 45.227 98.56 58.88 151.893h125.867c-40.96-70.4-106.24-125.013-184.747-151.893zM698.027 298.667c3.413 28.16 5.973 56.32 5.973 85.333s-2.56 57.173-5.973 85.333h144.213c6.827-27.307 11.093-55.893 11.093-85.333s-4.267-58.027-11.093-85.333h-144.213z" />
<glyph unicode="&#xe958;" glyph-name="laptop_mac" data-tags="laptop_mac" d="M853.333 128c46.933 0 84.907 38.4 84.907 85.333l0.427 469.333c0 46.933-38.4 85.333-85.333 85.333h-682.667c-46.933 0-85.333-38.4-85.333-85.333v-469.333c0-46.933 38.4-85.333 85.333-85.333h-170.667c0-46.933 38.4-85.333 85.333-85.333h853.333c46.933 0 85.333 38.4 85.333 85.333h-170.667zM170.667 682.667h682.667v-469.333h-682.667v469.333zM512 85.333c-23.467 0-42.667 19.2-42.667 42.667s19.2 42.667 42.667 42.667c23.467 0 42.667-19.2 42.667-42.667s-19.2-42.667-42.667-42.667z" />
<glyph unicode="&#xe959;" glyph-name="leaderboard" data-tags="leaderboard" d="M277.333 0h-149.333c-23.467 0-42.667 19.2-42.667 42.667v426.667c0 23.467 19.2 42.667 42.667 42.667h149.333c23.467 0 42.667-19.2 42.667-42.667v-426.667c0-23.467-19.2-42.667-42.667-42.667zM586.667 768h-149.333c-23.467 0-42.667-19.2-42.667-42.667v-682.667c0-23.467 19.2-42.667 42.667-42.667h149.333c23.467 0 42.667 19.2 42.667 42.667v682.667c0 23.467-19.2 42.667-42.667 42.667zM896 426.667h-149.333c-23.467 0-42.667-19.2-42.667-42.667v-341.333c0-23.467 19.2-42.667 42.667-42.667h149.333c23.467 0 42.667 19.2 42.667 42.667v341.333c0 23.467-19.2 42.667-42.667 42.667z" />
<glyph unicode="&#xe95a;" glyph-name="light_bulb" data-tags="light_bulb" d="M619.52 541.778c0-4.178-1.516-7.782-4.547-10.813-3.072-3.031-6.636-4.547-10.813-4.547s-7.741 1.516-10.813 4.547c-3.031 3.031-4.547 6.636-4.547 10.813 0 14.705-8.643 26.092-25.928 34.079s-34.243 12.001-50.872 12.001c-4.178 0-7.741 1.516-10.813 4.547-3.031 3.031-4.547 6.636-4.547 10.813 0 4.137 1.516 7.741 4.547 10.813 3.072 3.031 6.636 4.547 10.813 4.547 16.015 0 31.908-2.58 47.759-7.7s29.778-13.763 41.779-25.887c12.001-12.165 17.981-26.583 17.981-43.213zM696.32 541.778c0 23.020-5.53 44.483-16.548 64.307-11.059 19.866-25.436 36.086-43.213 48.742-17.777 12.616-37.437 22.528-59.023 29.737-21.627 7.209-43.459 10.813-65.536 10.813s-43.909-3.604-65.536-10.813c-21.586-7.209-41.247-17.121-59.023-29.737-17.777-12.657-32.154-28.877-43.213-48.742-11.018-19.825-16.548-41.288-16.548-64.307 0-32.317 10.895-61.112 32.645-86.385l29.286-31.703c40.96-48.947 63.529-96.625 67.666-143.032h109.445c4.178 46.408 26.706 94.085 67.666 143.032l29.286 31.703c21.75 25.272 32.645 54.067 32.645 86.385zM757.76 541.778c0-49.603-16.466-92.488-49.439-128.655-14.418-15.688-26.337-29.573-35.758-41.738-9.462-12.165-18.964-27.443-28.549-45.834-9.626-18.432-15.073-35.635-16.343-51.61 15.032-8.97 22.569-22.077 22.569-39.363 0-11.837-4.014-22.077-12.001-30.72 7.987-8.643 12.001-18.883 12.001-30.72 0-16.63-7.209-29.614-21.586-38.871 4.137-7.373 6.226-14.909 6.226-22.569 0-14.705-5.038-26.092-15.114-34.079s-22.487-12.001-37.192-12.001c-6.431-14.090-16.015-25.272-28.795-33.587-12.82-8.356-26.747-12.493-41.779-12.493s-28.959 4.137-41.779 12.493c-12.78 8.315-22.364 19.497-28.795 33.587-14.705 0-27.116 4.014-37.192 12.001s-15.114 19.374-15.114 34.079c0 7.66 2.089 15.196 6.226 22.569-14.377 9.257-21.586 22.241-21.586 38.871 0 11.837 4.014 22.077 12.001 30.72-7.987 8.643-12.001 18.883-12.001 30.72 0 17.285 7.537 30.392 22.569 39.363-1.27 15.974-6.717 33.178-16.343 51.61-9.585 18.391-19.087 33.669-28.549 45.834-9.421 12.165-21.34 26.051-35.758 41.738-32.973 36.168-49.439 79.053-49.439 128.655 0 31.662 7.127 61.194 21.34 88.556 14.254 27.361 32.973 50.094 56.197 68.157 23.183 18.063 49.439 32.317 78.684 42.721 29.286 10.404 59.146 15.606 89.539 15.606s60.252-5.202 89.539-15.606c29.245-10.404 55.501-24.658 78.684-42.721 23.224-18.063 41.943-40.796 56.197-68.157 14.213-27.361 21.34-56.893 21.34-88.556z" />
<glyph unicode="&#xe95b;" glyph-name="link" data-tags="link" d="M716.8 592.978h-122.88c-22.528 0-40.96-18.432-40.96-40.96s18.432-40.96 40.96-40.96h122.88c67.584 0 122.88-55.296 122.88-122.88s-55.296-122.88-122.88-122.88h-122.88c-22.528 0-40.96-18.432-40.96-40.96s18.432-40.96 40.96-40.96h122.88c113.050 0 204.8 91.75 204.8 204.8s-91.75 204.8-204.8 204.8zM348.16 388.178c0-22.528 18.432-40.96 40.96-40.96h245.76c22.528 0 40.96 18.432 40.96 40.96s-18.432 40.96-40.96 40.96h-245.76c-22.528 0-40.96-18.432-40.96-40.96zM430.080 265.298h-122.88c-67.584 0-122.88 55.296-122.88 122.88s55.296 122.88 122.88 122.88h122.88c22.528 0 40.96 18.432 40.96 40.96s-18.432 40.96-40.96 40.96h-122.88c-113.050 0-204.8-91.75-204.8-204.8s91.75-204.8 204.8-204.8h122.88c22.528 0 40.96 18.432 40.96 40.96s-18.432 40.96-40.96 40.96z" />
<glyph unicode="&#xe95c;" glyph-name="link_add" data-tags="link_add" d="M384 426.667h256c23.467 0 42.667-19.2 42.667-42.667s-19.2-42.667-42.667-42.667h-256c-23.467 0-42.667 19.2-42.667 42.667s19.2 42.667 42.667 42.667zM893.013 384c26.453 0 45.653 25.173 39.68 50.773-23.040 93.44-107.093 162.56-207.36 162.56h-130.133c-22.187 0-40.533-18.347-40.533-40.533s18.347-40.533 40.533-40.533h130.133c61.867 0 113.92-42.667 128.427-99.84 4.693-18.773 20.053-32.427 39.253-32.427zM168.96 410.453c11.947 62.72 70.827 105.813 134.827 105.813h125.013c22.187 0 40.533 18.347 40.533 40.533s-18.347 40.533-40.533 40.533h-120.747c-111.36 0-210.773-81.493-221.44-192.427-12.373-127.147 87.467-234.24 212.053-234.24h130.133c22.187 0 40.533 18.347 40.533 40.533s-18.347 40.533-40.533 40.533h-130.133c-81.493 0-145.92 74.24-129.707 158.72zM768 384c-23.467 0-42.667-19.2-42.667-42.667v-85.333h-85.333c-23.467 0-42.667-19.2-42.667-42.667s19.2-42.667 42.667-42.667h85.333v-85.333c0-23.467 19.2-42.667 42.667-42.667s42.667 19.2 42.667 42.667v85.333h85.333c23.467 0 42.667 19.2 42.667 42.667s-19.2 42.667-42.667 42.667h-85.333v85.333c0 23.467-19.2 42.667-42.667 42.667z" />
<glyph unicode="&#xe95d;" glyph-name="link_remove" data-tags="link_remove" d="M593.92 511.058h117.555c59.802 0 114.688-40.141 126.157-99.123 12.698-67.174-30.31-127.386-90.931-142.541l62.669-62.669c72.499 37.274 120.832 115.507 110.592 205.21-11.469 104.858-106.086 181.043-211.763 181.043h-114.278c-22.528 0-40.96-18.432-40.96-40.96s18.432-40.96 40.96-40.96zM164.25 735.928c-15.974 15.974-41.779 15.974-57.754 0s-15.974-41.779 0-57.754l108.134-108.134c-72.499-37.274-120.832-115.507-110.592-205.21 11.469-105.267 106.086-181.453 211.763-181.453h114.278c22.528 0 40.96 18.432 40.96 40.96s-18.432 40.96-40.96 40.96h-117.555c-59.802 0-114.688 40.141-126.157 99.123-12.698 67.174 30.72 127.386 90.931 142.541l86.835-86.835c-9.421-7.782-15.974-18.842-15.974-31.949 0-22.528 18.432-40.96 40.96-40.96h47.923l364.544-364.544c15.974-15.974 41.779-15.974 57.754 0s15.974 41.779 0 57.754l-695.091 695.501zM593.92 429.138l70.042-70.042c7.373 7.373 11.878 17.613 11.878 29.082 0 22.528-18.432 40.96-40.96 40.96h-40.96z" />
<glyph unicode="&#xe95e;" glyph-name="linkedin" data-tags="linkedin" d="M341.504 488.576v-403.243h-134.272v403.243h134.272zM350.037 613.077c0.299-19.797-6.571-36.352-20.523-49.621-13.995-13.312-32.341-19.968-55.125-19.968h-0.853c-22.229 0-40.149 6.656-53.675 19.968-13.568 13.269-20.352 29.824-20.352 49.621 0 20.096 6.955 36.693 20.949 49.835 13.952 13.184 32.213 19.755 54.741 19.755 22.485 0 40.533-6.571 54.101-19.755 13.568-13.141 20.48-29.739 20.736-49.835zM824.491 316.459v-231.125h-133.845v215.637c0 28.501-5.504 50.816-16.512 66.944-10.965 16.171-28.117 24.235-51.456 24.235-17.109 0-31.403-4.693-42.923-14.037-11.52-9.387-20.139-20.949-25.856-34.816-2.987-8.107-4.48-19.115-4.48-32.939v-225.024h-133.845c0.512 108.245 0.811 196.011 0.811 263.253 0 67.285-0.128 107.435-0.427 120.448l-0.384 19.541h133.845v-58.581h-0.811c5.419 8.661 11.008 16.256 16.683 22.784 5.717 6.485 13.355 13.568 22.997 21.163s21.419 13.483 35.413 17.664c13.952 4.224 29.483 6.315 46.592 6.315 46.379 0 83.669-15.403 111.872-46.165 28.245-30.805 42.325-75.904 42.325-135.296z" />
<glyph unicode="&#xe95f;" glyph-name="live_tv" data-tags="live_tv" d="M853.333 768h-682.667c-46.933 0-85.333-38.4-85.333-85.333v-512c0-46.933 38.4-85.333 85.333-85.333h170.667v-42.667c0-23.467 19.2-42.667 42.667-42.667h256c23.467 0 42.667 19.2 42.667 42.667v42.667h170.667c46.933 0 84.907 38.4 84.907 85.333l0.427 512c0 46.933-38.4 85.333-85.333 85.333zM853.333 170.667h-682.667v512h682.667v-512zM405.333 540.587v-227.84c0-33.707 37.547-54.187 65.707-35.84l177.067 113.92c26.027 16.64 26.027 55.040 0 71.68l-177.067 113.92c-28.16 18.347-65.707-2.133-65.707-35.84z" />
<glyph unicode="&#xe960;" glyph-name="lock" data-tags="lock" d="M768 533.333h-42.667v85.333c0 117.76-95.573 213.333-213.333 213.333s-213.333-95.573-213.333-213.333v-85.333h-42.667c-46.933 0-85.333-38.4-85.333-85.333v-426.667c0-46.933 38.4-85.333 85.333-85.333h512c46.933 0 85.333 38.4 85.333 85.333v426.667c0 46.933-38.4 85.333-85.333 85.333zM512 149.333c-46.933 0-85.333 38.4-85.333 85.333s38.4 85.333 85.333 85.333c46.933 0 85.333-38.4 85.333-85.333s-38.4-85.333-85.333-85.333zM384 533.333v85.333c0 70.827 57.173 128 128 128s128-57.173 128-128v-85.333h-256z" />
<glyph unicode="&#xe961;" glyph-name="lock_open" data-tags="lock_open" d="M768 533.333h-42.667v85.333c0 117.76-95.573 213.333-213.333 213.333-97.28 0-182.187-65.707-206.507-160-5.973-23.040 7.68-46.080 30.72-52.053 22.613-5.973 46.080 7.68 52.053 30.72 14.507 56.32 65.28 96 123.733 96 70.4 0 128-57.6 128-128v-85.333h-384c-46.933 0-85.333-38.4-85.333-85.333v-426.667c0-46.933 38.4-85.333 85.333-85.333h512c46.933 0 85.333 38.4 85.333 85.333v426.667c0 46.933-38.4 85.333-85.333 85.333zM512 149.333c-46.933 0-85.333 38.4-85.333 85.333s38.4 85.333 85.333 85.333c46.933 0 85.333-38.4 85.333-85.333s-38.4-85.333-85.333-85.333z" />
<glyph unicode="&#xe962;" glyph-name="login" data-tags="login" d="M798.72 756.818h-245.76c-22.528 0-40.96-18.432-40.96-40.96s18.432-40.96 40.96-40.96h245.76v-573.44h-245.76c-22.528 0-40.96-18.432-40.96-40.96s18.432-40.96 40.96-40.96h245.76c45.056 0 81.92 36.864 81.92 81.92v573.44c0 45.056-36.864 81.92-81.92 81.92zM471.040 502.456v-73.318h-286.72c-22.528 0-40.96-18.432-40.96-40.96s18.432-40.96 40.96-40.96h286.72v-73.318c0-18.432 22.118-27.443 34.816-14.336l114.278 114.278c8.192 8.192 8.192 20.89 0 29.082l-114.278 114.278c-12.698 12.698-34.816 3.686-34.816-14.746z" />
<glyph unicode="&#xe963;" glyph-name="logout" data-tags="logout" d="M225.28 674.898h245.76c22.528 0 40.96 18.432 40.96 40.96s-18.432 40.96-40.96 40.96h-245.76c-45.056 0-81.92-36.864-81.92-81.92v-573.44c0-45.056 36.864-81.92 81.92-81.92h245.76c22.528 0 40.96 18.432 40.96 40.96s-18.432 40.96-40.96 40.96h-245.76v573.44zM866.304 402.514l-114.278 114.278c-13.107 13.107-35.226 4.096-35.226-14.336v-73.318h-286.72c-22.528 0-40.96-18.432-40.96-40.96s18.432-40.96 40.96-40.96h286.72v-73.318c0-18.432 22.118-27.443 34.816-14.336l114.278 114.278c8.192 7.782 8.192 20.89 0.41 28.672z" />
<glyph unicode="&#xe964;" glyph-name="map" data-tags="map" d="M640 678.4l-228.267 79.787c-17.92 6.4-37.547 6.4-55.467 0.427l-199.253-66.987c-17.493-5.973-29.013-22.187-29.013-40.533v-598.613c0-29.867 30.293-50.773 58.027-39.68l197.973 76.8 228.267-79.787c17.92-6.4 37.547-6.4 55.467-0.427l199.253 66.987c17.493 5.973 29.013 22.187 29.013 40.533v598.613c0 29.867-30.293 50.773-58.027 39.68l-197.973-76.8zM640 89.6l-256 90.027v498.347l256-90.027v-498.347z" />
<glyph unicode="&#xe965;" glyph-name="menu" data-tags="menu" d="M170.667 128h682.667c23.467 0 42.667 19.2 42.667 42.667s-19.2 42.667-42.667 42.667h-682.667c-23.467 0-42.667-19.2-42.667-42.667s19.2-42.667 42.667-42.667zM170.667 341.333h682.667c23.467 0 42.667 19.2 42.667 42.667s-19.2 42.667-42.667 42.667h-682.667c-23.467 0-42.667-19.2-42.667-42.667s19.2-42.667 42.667-42.667zM128 597.333c0-23.467 19.2-42.667 42.667-42.667h682.667c23.467 0 42.667 19.2 42.667 42.667s-19.2 42.667-42.667 42.667h-682.667c-23.467 0-42.667-19.2-42.667-42.667z" />
<glyph unicode="&#xe966;" glyph-name="message_lines" data-tags="message_lines" horiz-adv-x="1067" d="M873.813 780.459h-682.667c-46.933 0-84.907-38.4-84.907-85.333l-0.427-664.747c0-37.973 46.080-57.173 72.96-30.293l97.707 97.707h597.333c46.933 0 85.333 38.4 85.333 85.333v512c0 46.933-38.4 85.333-85.333 85.333zM319.147 481.792h426.667c23.467 0 42.667-19.2 42.667-42.667s-19.2-42.667-42.667-42.667h-426.667c-23.467 0-42.667 19.2-42.667 42.667s19.2 42.667 42.667 42.667zM575.147 268.459h-256c-23.467 0-42.667 19.2-42.667 42.667s19.2 42.667 42.667 42.667h256c23.467 0 42.667-19.2 42.667-42.667s-19.2-42.667-42.667-42.667zM745.813 524.459h-426.667c-23.467 0-42.667 19.2-42.667 42.667s19.2 42.667 42.667 42.667h426.667c23.467 0 42.667-19.2 42.667-42.667s-19.2-42.667-42.667-42.667z" />
<glyph unicode="&#xe967;" glyph-name="mic" data-tags="mic" d="M511.957 277.333c70.827 0 128 57.173 128 128v256c0 70.827-57.173 128-128 128s-128-57.173-128-128v-256c0-70.827 57.173-128 128-128zM764.117 405.333c-20.907 0-38.4-15.36-41.813-36.267-17.493-100.693-104.96-177.067-210.347-177.067s-192.853 76.373-210.347 177.067c-3.413 20.907-20.907 36.267-41.813 36.267-26.027 0-46.507-23.040-42.667-48.64 20.907-128 123.307-227.84 252.16-246.613v-88.747c0-23.467 19.2-42.667 42.667-42.667s42.667 19.2 42.667 42.667v88.747c128.853 18.773 231.253 118.613 252.16 246.613 4.267 25.6-16.64 48.64-42.667 48.64z" />
<glyph unicode="&#xe968;" glyph-name="monetization" data-tags="monetization" d="M512 810.667c-235.52 0-426.667-191.147-426.667-426.667s191.147-426.667 426.667-426.667c235.52 0 426.667 191.147 426.667 426.667s-191.147 426.667-426.667 426.667zM547.84 137.813v-16.64c0-19.627-15.787-35.413-35.413-35.413s-35.413 15.787-35.413 35.413v19.2c-65.707 14.933-99.413 56.32-116.48 90.027-9.813 18.773-0.427 42.24 19.2 50.347l2.987 1.28c17.493 7.253 37.12 0 46.080-16.64 13.653-26.027 40.96-58.88 90.88-58.88 39.68 0 84.48 20.053 84.48 68.267 0 40.96-29.867 62.72-97.28 86.613-60.587 21.76-142.933 49.92-142.933 141.227 0 77.227 64.853 117.333 113.493 126.72v17.92c-0.853 19.627 14.933 35.413 34.56 35.413s35.413-15.787 35.413-35.413v-16.64c46.933-7.68 75.947-32.427 93.44-54.613 14.933-19.2 7.68-46.933-14.507-56.747-15.36-6.4-33.28-1.707-43.52 11.52-11.947 16.213-33.28 32.853-68.693 32.853-29.867 0-77.227-15.787-77.227-59.307 0-46.933 54.613-62.293 112.64-81.493 76.8-26.88 129.28-67.413 128.427-146.773 0.427-123.733-128-137.813-130.133-138.24z" />
<glyph unicode="&#xe969;" glyph-name="more_horizontal" data-tags="more_horizontal" d="M256 469.333c-46.933 0-85.333-38.4-85.333-85.333s38.4-85.333 85.333-85.333c46.933 0 85.333 38.4 85.333 85.333s-38.4 85.333-85.333 85.333zM768 469.333c-46.933 0-85.333-38.4-85.333-85.333s38.4-85.333 85.333-85.333c46.933 0 85.333 38.4 85.333 85.333s-38.4 85.333-85.333 85.333zM512 469.333c-46.933 0-85.333-38.4-85.333-85.333s38.4-85.333 85.333-85.333c46.933 0 85.333 38.4 85.333 85.333s-38.4 85.333-85.333 85.333z" />
<glyph unicode="&#xe96a;" glyph-name="more_vertical" data-tags="more_vertical" d="M512 552.018c45.056 0 81.92 36.864 81.92 81.92s-36.864 81.92-81.92 81.92c-45.056 0-81.92-36.864-81.92-81.92s36.864-81.92 81.92-81.92zM512 470.098c-45.056 0-81.92-36.864-81.92-81.92s36.864-81.92 81.92-81.92c45.056 0 81.92 36.864 81.92 81.92s-36.864 81.92-81.92 81.92zM512 224.338c-45.056 0-81.92-36.864-81.92-81.92s36.864-81.92 81.92-81.92c45.056 0 81.92 36.864 81.92 81.92s-36.864 81.92-81.92 81.92z" />
<glyph unicode="&#xe96b;" glyph-name="moving" data-tags="moving" d="M115.2 158.293c16.64-16.64 43.52-16.64 60.16 0l195.84 195.84c16.64 16.64 43.52 16.64 60.16 0l49.92-49.92c49.92-49.92 130.987-49.92 180.907 0l178.347 177.92 61.44-61.44c13.227-13.227 36.267-3.84 36.267 14.933v183.040c0.427 11.947-8.96 21.333-20.907 21.333h-183.040c-19.2 0-28.587-23.040-14.933-36.267l61.44-61.44-177.92-177.92c-16.64-16.64-43.52-16.64-60.16 0l-49.92 49.92c-49.92 49.92-130.987 49.92-180.907 0l-196.693-195.84c-16.213-16.64-16.213-43.947 0-60.16z" />
<glyph unicode="&#xe96c;" glyph-name="navigation" data-tags="navigation" d="M808.533 735.573l-651.947-242.347c-17.067-6.4-28.587-22.613-28.587-40.96 0-17.92 11.093-34.133 27.733-40.96l273.92-109.653 109.653-273.92c6.827-16.64 23.040-27.733 40.96-27.733 18.347 0 34.987 11.52 41.387 28.587l242.347 651.947c12.373 34.56-20.907 67.84-55.467 55.040z" />
<glyph unicode="&#xe96d;" glyph-name="notifications" data-tags="notifications" horiz-adv-x="1067" d="M782.635 170.667v298.667c0 119.040-81.493 219.307-192 247.467v29.867c0 35.413-28.587 64-64 64s-64-28.587-64-64v-29.867c-110.507-28.16-192-128.427-192-247.467v-298.667h-42.667c-23.467 0-42.667-19.2-42.667-42.667s19.2-42.667 42.667-42.667h597.333c23.467 0 42.667 19.2 42.667 42.667s-19.2 42.667-42.667 42.667h-42.667zM526.635-42.667c46.933 0 85.333 38.4 85.333 85.333h-170.667c0-46.933 38.4-85.333 85.333-85.333z" />
<glyph unicode="&#xe96e;" glyph-name="notifications_off" data-tags="notifications_off" d="M768.256 473.429c0 119.040-81.493 219.307-192 247.467v29.867c0 35.413-28.587 64-64 64s-64-28.587-64-64v-29.867c-36.693-9.387-69.547-27.307-97.707-50.347l417.707-417.707v220.587zM512.256-38.571c46.933 0 85.333 38.4 85.333 85.333h-170.667c0-46.933 38.4-85.333 85.333-85.333zM874.496 25.856l-724.48 724.48c-16.64 16.64-43.52 16.64-60.16 0s-16.64-43.52 0-60.16l170.667-170.667c-2.56-15.36-4.267-30.293-4.267-46.080v-298.667h-42.667c-23.467 0-42.667-19.2-42.667-42.667s19.2-42.667 42.667-42.667h476.587l123.733-123.733c16.64-16.64 43.52-16.64 60.16 0 17.067 16.64 17.067 43.52 0.427 60.16z" />
<glyph unicode="&#xe96f;" glyph-name="offer" data-tags="offer" d="M103.509 238.677c-1.749 5.12-0.896 10.795 2.261 15.189s8.235 7.040 13.653 7.040c67.115 0.085 259.883 0.085 315.776 0.085 8.491 0 15.36-6.869 15.36-15.317 0-29.995 0-97.28 0-140.715 0-6.699 4.011-12.715 10.197-15.275 6.187-2.517 13.269-1.109 17.963 3.627 58.197 58.411 190.592 191.403 244.011 245.035 12.715 12.715 12.715 33.365 0 46.080-54.144 54.4-189.568 190.336-246.443 247.424-4.309 4.309-10.795 5.632-16.427 3.285s-9.301-7.808-9.301-13.909c0-42.709 0-111.531 0-142.933 0-9.131-7.424-16.512-16.555-16.512-59.179 0-260.309 0-326.997 0-5.376-0.043-10.453 2.389-13.824 6.613-3.371 4.181-4.651 9.643-3.499 14.891 45.013 189.611 215.552 330.88 418.816 330.88 237.397 0 430.165-192.725 430.165-430.165s-192.768-430.165-430.165-430.165c-186.453 0-345.301 118.827-404.992 284.843z" />
<glyph unicode="&#xe970;" glyph-name="parking_local" data-tags="parking_local" d="M545.707 768h-204.373c-46.933 0-85.333-38.4-85.333-85.333v-597.333c0-46.933 38.4-85.333 85.333-85.333s85.333 38.4 85.333 85.333v170.667h128c152.32 0 273.92 133.547 253.867 289.707-16.64 128.853-132.693 222.293-262.827 222.293zM563.2 426.667h-136.533v170.667h136.533c46.933 0 85.333-38.4 85.333-85.333s-38.4-85.333-85.333-85.333z" />
<glyph unicode="&#xe971;" glyph-name="pencil" data-tags="pencil" d="M128 151.040v-129.707c0-11.947 9.387-21.333 21.333-21.333h129.707c5.547 0 11.093 2.133 14.933 6.4l465.92 465.493-160 160-465.493-465.493c-4.267-4.267-6.4-9.387-6.4-15.36zM883.627 655.787l-99.84 99.84c-16.64 16.64-43.52 16.64-60.16 0l-78.080-78.080 160-160 78.080 78.080c16.64 16.64 16.64 43.52 0 60.16z" />
<glyph unicode="&#xe972;" glyph-name="people" data-tags="people" d="M640 554.667c0 60.587-21.333 116.48-56.747 160.427 17.92 5.973 36.693 10.24 56.747 10.24 94.293 0 170.667-76.373 170.667-170.667s-76.373-170.667-170.667-170.667c-18.347 0-35.84 3.84-52.48 8.96-1.28 0.427-2.56 0.853-4.267 1.28 35.413 43.947 56.747 99.84 56.747 160.427zM710.827 335.787c58.453-39.68 99.84-93.44 99.84-165.12v-128h170.667v128c0 93.013-152.747 148.053-270.507 165.12zM384 725.333c94.293 0 170.667-76.373 170.667-170.667s-76.373-170.667-170.667-170.667c-94.293 0-170.667 76.373-170.667 170.667s76.373 170.667 170.667 170.667zM384 341.333c113.92 0 341.333-57.173 341.333-170.667v-128h-682.667v128c0 113.493 227.413 170.667 341.333 170.667z" />
<glyph unicode="&#xe973;" glyph-name="people_contact" data-tags="people_contact" d="M473.088 564.437c0 70.699-58.155 128.853-128.853 128.853s-128.853-58.155-128.853-128.853c0-70.699 58.155-128.853 128.853-128.853s128.853 58.155 128.853 128.853zM679.296 693.291c70.699 0 128.853-58.155 128.853-128.853s-58.155-128.853-128.853-128.853c-70.699 0-128.853 58.155-128.853 128.853s58.155 128.853 128.853 128.853zM696.363 384h0.043c171.477 0 226.005-161.067 240.64-309.291h-850.645c13.568 148.267 68.224 309.291 239.701 309.291 77.653 2.219 149.931-40.704 185.131-109.952 34.987 69.419 107.435 112.427 185.131 109.952z" />
<glyph unicode="&#xe974;" glyph-name="person" data-tags="person" d="M682.667 554.667c0-94.257-76.41-170.667-170.667-170.667s-170.667 76.41-170.667 170.667c0 94.257 76.41 170.667 170.667 170.667s170.667-76.41 170.667-170.667zM784.64 274.773c-71.68 36.693-164.693 66.56-272.64 66.56s-200.96-29.867-272.64-66.56c-42.667-21.76-68.693-65.707-68.693-113.493v-118.613h682.667v118.613c0 47.787-26.027 91.733-68.693 113.493z" />
<glyph unicode="&#xe975;" glyph-name="person_add" data-tags="person_add" d="M656.64 274.773c-71.68 36.693-164.693 66.56-272.64 66.56s-200.96-29.867-272.64-66.56c-42.667-21.76-68.693-65.707-68.693-113.493v-118.613h682.667v118.613c0 47.787-26.027 91.733-68.693 113.493zM384 384c94.293 0 170.667 76.373 170.667 170.667s-76.373 170.667-170.667 170.667c-94.293 0-170.667-76.373-170.667-170.667s76.373-170.667 170.667-170.667zM853.333 512v85.333c0 23.467-19.2 42.667-42.667 42.667s-42.667-19.2-42.667-42.667v-85.333h-85.333c-23.467 0-42.667-19.2-42.667-42.667s19.2-42.667 42.667-42.667h85.333v-85.333c0-23.467 19.2-42.667 42.667-42.667s42.667 19.2 42.667 42.667v85.333h85.333c23.467 0 42.667 19.2 42.667 42.667s-19.2 42.667-42.667 42.667h-85.333z" />
<glyph unicode="&#xe976;" glyph-name="person_remove" data-tags="person_remove" d="M938.667 469.333h-170.667c-23.467 0-42.667-19.2-42.667-42.667s19.2-42.667 42.667-42.667h170.667c23.467 0 42.667 19.2 42.667 42.667s-19.2 42.667-42.667 42.667zM384 384c94.293 0 170.667 76.373 170.667 170.667s-76.373 170.667-170.667 170.667c-94.293 0-170.667-76.373-170.667-170.667s76.373-170.667 170.667-170.667zM656.64 274.773c-71.68 36.693-164.693 66.56-272.64 66.56s-200.96-29.867-272.64-66.56c-42.667-21.76-68.693-65.707-68.693-113.493v-118.613h682.667v118.613c0 47.787-26.027 91.733-68.693 113.493z" />
<glyph unicode="&#xe977;" glyph-name="phone" data-tags="phone" horiz-adv-x="1067" d="M687.36 281.643l-107.52-106.667c-106.667 61.013-194.987 149.333-256 256l106.667 107.52c9.813 10.24 14.080 24.32 11.52 38.4l-32 157.013c-3.84 19.627-21.333 34.133-41.813 34.133h-177.067c-23.893 0-43.947-20.053-42.667-43.947 7.253-123.307 44.8-238.933 103.68-340.053 67.413-116.48 164.267-212.907 280.32-280.32 101.12-58.453 216.747-96.427 340.053-103.68 23.893-1.28 43.947 18.773 43.947 42.667v177.067c0 20.48-14.507 37.973-34.133 41.813l-156.587 31.147c-14.080 2.987-28.587-1.28-38.4-11.093z" />
<glyph unicode="&#xe978;" glyph-name="phone_plus" data-tags="phone_plus" horiz-adv-x="1067" d="M617.813 554.709h85.333v-85.333c0-23.467 19.2-42.667 42.667-42.667s42.667 19.2 42.667 42.667v85.333h85.333c23.467 0 42.667 19.2 42.667 42.667s-19.2 42.667-42.667 42.667h-85.333v85.333c0 23.467-19.2 42.667-42.667 42.667s-42.667-19.2-42.667-42.667v-85.333h-85.333c-23.467 0-42.667-19.2-42.667-42.667s19.2-42.667 42.667-42.667zM687.36 281.643l-107.52-106.667c-106.667 61.013-194.987 149.333-256 256l106.667 107.52c9.813 10.24 14.080 24.32 11.52 38.4l-32 157.013c-3.84 19.627-21.333 34.133-41.813 34.133h-177.067c-23.893 0-43.947-20.053-42.667-43.947 7.253-123.307 44.8-238.933 103.68-340.053 67.413-116.48 164.267-212.907 280.32-280.32 101.12-58.453 216.747-96.427 340.053-103.68 23.893-1.28 43.947 18.773 43.947 42.667v177.067c0 20.48-14.507 37.973-34.133 41.813l-156.587 31.147c-14.080 2.987-28.587-1.28-38.4-11.093z" />
<glyph unicode="&#xe979;" glyph-name="photo" data-tags="photo" d="M810.667 768h-597.333c-46.933 0-85.333-38.4-85.333-85.333v-597.333c0-46.933 38.4-85.333 85.333-85.333h597.333c46.933 0 85.333 38.4 85.333 85.333v597.333c0 46.933-38.4 85.333-85.333 85.333zM281.6 204.8l85.333 113.92c8.533 11.52 25.6 11.52 34.133 0l78.933-105.387 110.933 148.053c8.533 11.52 25.6 11.52 34.133 0l117.333-156.587c10.667-14.080 0.427-34.133-17.067-34.133h-426.667c-17.493 0-27.733 20.053-17.067 34.133z" />
<glyph unicode="&#xe97a;" glyph-name="pie_chart" data-tags="pie_chart" d="M469.333 810.667v-853.333c-216.32 21.333-384 204.373-384 426.667s167.68 405.333 384 426.667zM555.947 810.667v-383.573h382.72c-20.053 202.24-180.907 363.52-382.72 383.573zM555.947 340.907v-383.573c202.24 20.053 362.667 181.333 382.72 383.573h-382.72z" />
<glyph unicode="&#xe97b;" glyph-name="place" data-tags="place" d="M512 810.667c-179.2 0-341.333-137.387-341.333-349.867 0-135.68 104.533-295.253 313.173-479.147 16.213-14.080 40.533-14.080 56.747 0 208.213 183.893 312.747 343.467 312.747 479.147 0 212.48-162.133 349.867-341.333 349.867zM512 384c-46.933 0-85.333 38.4-85.333 85.333s38.4 85.333 85.333 85.333c46.933 0 85.333-38.4 85.333-85.333s-38.4-85.333-85.333-85.333z" />
<glyph unicode="&#xe97c;" glyph-name="power_button" data-tags="power_button" d="M510.607 756.818c-22.528 0-40.96-18.432-40.96-40.96v-327.68c0-22.528 18.432-40.96 40.96-40.96s40.96 18.432 40.96 40.96v327.68c0 22.528-18.432 40.96-40.96 40.96zM721.142 639.672c-15.974-15.974-15.565-40.96-0.41-56.934 46.285-49.152 74.957-114.688 76.595-187.187 3.686-156.877-126.157-292.045-283.034-293.683-160.154-2.458-290.406 126.566-290.406 286.31 0 75.366 29.082 143.77 76.595 194.97 15.155 15.974 15.155 40.96-0.41 56.525-16.384 16.384-43.008 15.974-58.573-0.819-59.392-63.078-96.666-147.046-99.533-240.026-5.734-199.885 156.877-372.736 356.762-378.88 208.896-6.554 380.518 160.973 380.518 368.64 0 97.075-37.683 184.73-99.123 250.266-15.565 16.794-42.598 17.203-58.982 0.819z" />
<glyph unicode="&#xe97d;" glyph-name="printer" data-tags="printer" horiz-adv-x="1067" d="M788.48 597.333v128c0 23.467-19.2 42.667-42.667 42.667h-426.667c-23.467 0-42.667-19.2-42.667-42.667v-128h512zM831.147 554.667h-597.333c-70.827 0-128-57.173-128-128v-213.333c0-23.467 19.2-42.667 42.667-42.667h128v-85.333c0-46.933 38.4-85.333 85.333-85.333h341.333c46.933 0 85.333 38.4 85.333 85.333v85.333h128c23.467 0 42.667 19.2 42.667 42.667v213.333c0 70.827-57.173 128-128 128zM703.147 85.333h-341.333v170.667h341.333v-170.667zM788.48 362.667c-23.467 0-42.667 19.2-42.667 42.667s19.2 42.667 42.667 42.667c23.467 0 42.667-19.2 42.667-42.667s-19.2-42.667-42.667-42.667z" />
<glyph unicode="&#xe97e;" glyph-name="refresh" data-tags="refresh" d="M427.093 625.067c157.867 57.173 340.907-58.027 340.907-241.067h-76.373c-19.2 0-28.587-23.040-14.933-36.267l119.040-119.040c8.533-8.533 21.76-8.533 30.293 0l119.040 119.040c13.227 13.227 3.84 36.267-15.36 36.267h-76.373c0 245.76-246.613 400.64-460.373 319.147-26.88-10.24-33.28-46.080-12.8-66.56l3.413-3.413c11.093-11.093 28.16-13.653 43.52-8.107zM596.48 143.36c-163.84-58.453-340.48 62.72-340.48 240.64h76.373c19.2 0 28.587 23.040 14.933 36.267l-119.040 119.040c-8.533 8.533-21.76 8.533-30.293 0l-119.040-119.040c-13.227-13.227-3.84-36.267 14.933-36.267h76.8c0-245.76 246.613-400.64 460.373-319.147 26.88 10.24 33.28 46.080 12.8 66.56l-2.987 2.987c-11.52 11.52-28.587 14.080-44.373 8.96z" />
<glyph unicode="&#xe97f;" glyph-name="refresh_alt" data-tags="refresh_alt" d="M753.067 625.067c-69.547 69.547-168.107 109.653-276.48 98.56-156.587-15.787-285.44-142.933-302.933-299.52-23.467-206.933 136.533-381.44 338.347-381.44 136.107 0 253.013 79.787 307.627 194.56 13.653 28.587-6.827 61.44-38.4 61.44-15.787 0-30.72-8.533-37.547-22.613-48.213-103.68-163.84-169.387-290.133-141.227-94.72 20.907-171.093 98.133-191.147 192.853-35.84 165.547 90.027 312.32 249.6 312.32 70.827 0 133.973-29.44 180.053-75.947l-64.427-64.427c-26.88-26.88-8.107-72.96 29.867-72.96h153.173c23.467 0 42.667 19.2 42.667 42.667v153.173c0 37.973-46.080 57.173-72.96 30.293l-27.307-27.733z" />
<glyph unicode="&#xe980;" glyph-name="remove" data-tags="remove" d="M768 341.333h-512c-23.467 0-42.667 19.2-42.667 42.667s19.2 42.667 42.667 42.667h512c23.467 0 42.667-19.2 42.667-42.667s-19.2-42.667-42.667-42.667z" />
<glyph unicode="&#xe981;" glyph-name="remove_circle_outline" data-tags="remove_circle_outline" d="M298.667 384c0-23.467 19.2-42.667 42.667-42.667h341.333c23.467 0 42.667 19.2 42.667 42.667s-19.2 42.667-42.667 42.667h-341.333c-23.467 0-42.667-19.2-42.667-42.667zM512 810.667c-235.52 0-426.667-191.147-426.667-426.667s191.147-426.667 426.667-426.667c235.52 0 426.667 191.147 426.667 426.667s-191.147 426.667-426.667 426.667zM512 42.667c-188.16 0-341.333 153.173-341.333 341.333s153.173 341.333 341.333 341.333c188.16 0 341.333-153.173 341.333-341.333s-153.173-341.333-341.333-341.333z" />
<glyph unicode="&#xe982;" glyph-name="reply" data-tags="reply" horiz-adv-x="1067" d="M703.147 469.333h-298.667v110.507c0 37.973-46.080 57.173-72.96 30.293l-153.173-153.173c-16.64-16.64-16.64-43.52 0-60.16l153.173-153.173c26.88-26.88 72.96-8.107 72.96 29.867v110.507h298.667c70.4 0 128-57.6 128-128v-128c0-23.467 19.2-42.667 42.667-42.667s42.667 19.2 42.667 42.667v128c0 117.76-95.573 213.333-213.333 213.333z" />
<glyph unicode="&#xe983;" glyph-name="rss_feed" data-tags="rss_feed" horiz-adv-x="1067" d="M319.147 85.333c0-47.128-38.205-85.333-85.333-85.333s-85.333 38.205-85.333 85.333c0 47.128 38.205 85.333 85.333 85.333s85.333-38.205 85.333-85.333zM206.080 594.773c283.307-27.307 509.867-253.44 536.747-536.747 2.987-32.853 30.72-57.6 63.573-57.6 37.547 0 67.84 32.427 64 69.547-32.853 345.173-307.2 619.52-652.373 652.373-37.12 3.413-69.547-26.88-69.547-64.427 0-32.853 24.747-60.16 57.6-63.147zM148.48 400.213c0-32 23.893-58.027 55.467-63.147 143.787-23.467 257.707-137.387 281.6-281.173 5.12-31.573 31.147-55.467 63.147-55.467 39.68 0 69.547 35.84 63.147 74.667-32 199.253-189.44 356.693-388.693 388.693-38.827 5.973-74.667-23.893-74.667-63.573z" />
<glyph unicode="&#xe984;" glyph-name="save" data-tags="save" d="M689.92 768h-476.587c-46.933 0-85.333-38.4-85.333-85.333v-597.333c0-46.933 38.4-85.333 85.333-85.333h597.333c46.933 0 85.333 38.4 85.333 85.333v476.587c0 22.613-8.96 44.373-25.173 60.16l-120.747 120.747c-15.787 16.213-37.547 25.173-60.16 25.173zM512 128c-70.827 0-128 57.173-128 128s57.173 128 128 128c70.827 0 128-57.173 128-128s-57.173-128-128-128zM597.333 469.333h-298.667c-23.467 0-42.667 19.2-42.667 42.667v85.333c0 23.467 19.2 42.667 42.667 42.667h298.667c23.467 0 42.667-19.2 42.667-42.667v-85.333c0-23.467-19.2-42.667-42.667-42.667z" />
<glyph unicode="&#xe985;" glyph-name="schedule" data-tags="schedule" d="M511.573 810.667c-235.52 0-426.24-191.147-426.24-426.667s190.72-426.667 426.24-426.667c235.947 0 427.093 191.147 427.093 426.667s-191.147 426.667-427.093 426.667zM682.667 213.333c-16.64-16.64-43.52-16.64-60.16 0l-140.373 140.373c-8.107 8.107-12.8 18.773-12.8 30.293v170.667c0 23.467 19.2 42.667 42.667 42.667s42.667-19.2 42.667-42.667v-153.173l128-128c16.64-16.64 16.64-43.52 0-60.16z" />
<glyph unicode="&#xe986;" glyph-name="schedule_border" data-tags="schedule_border" d="M511.573 810.667c-235.52 0-426.24-191.147-426.24-426.667s190.72-426.667 426.24-426.667c235.947 0 427.093 191.147 427.093 426.667s-191.147 426.667-427.093 426.667zM512 42.667c-188.587 0-341.333 152.747-341.333 341.333s152.747 341.333 341.333 341.333c188.587 0 341.333-152.747 341.333-341.333s-152.747-341.333-341.333-341.333zM533.333 579.029c0 10.112-8.192 18.304-18.304 18.304-8.832 0-19.413 0-28.16 0-9.685 0-17.536-7.851-17.536-17.536 0-49.92 0-191.573 0-229.205 0-5.717 3.029-11.051 7.936-14.037 32.64-19.584 156.629-93.952 200.533-120.32 8.576-5.12 19.755-2.389 24.96 6.187 4.651 7.595 10.155 16.64 14.592 23.893 2.091 3.456 2.731 7.637 1.749 11.563s-3.499 7.296-6.955 9.344c-36.608 21.717-138.667 82.304-169.728 100.736-5.632 3.328-9.088 9.387-9.088 15.915 0 35.413 0 150.187 0 195.157z" />
<glyph unicode="&#xe987;" glyph-name="search" data-tags="search" d="M865.707 90.453l-237.227 237.227c48.213 66.133 69.547 152.747 41.813 244.907-29.013 95.147-109.653 169.813-206.933 189.44-198.4 40.107-369.493-131.413-329.387-329.387 19.627-97.707 94.293-178.347 189.44-206.933 92.16-27.733 178.773-6.4 244.907 41.813l237.227-237.227c16.64-16.64 43.52-16.64 60.16 0s16.64 43.52 0 60.16zM213.333 490.667c0 106.24 85.76 192 192 192s192-85.76 192-192c0-106.24-85.76-192-192-192s-192 85.76-192 192z" />
<glyph unicode="&#xe988;" glyph-name="send_arrow" data-tags="send_arrow" d="M140.288 660.779v-158.293c0-19.627 13.227-36.693 32.427-41.387l308.907-77.227-308.907-77.227c-19.2-4.693-32.427-21.76-32.427-41.387v-158.293c0-30.72 31.147-51.2 59.307-39.253l657.92 276.907c34.987 14.507 34.987 64 0 78.507l-657.92 277.333c-28.16 11.52-59.307-8.96-59.307-39.68z" />
<glyph unicode="&#xe989;" glyph-name="settings" data-tags="settings" d="M832 384c0 9.813-0.427 19.2-1.28 29.013l79.36 60.16c17.067 12.8 21.76 36.693 11.093 55.467l-79.787 137.813c-10.667 18.773-33.707 26.453-53.333 17.92l-91.733-38.827c-15.787 11.093-32.427 20.907-49.92 29.013l-12.373 98.56c-2.56 21.333-20.907 37.547-42.24 37.547h-159.147c-21.76 0-40.107-16.213-42.667-37.547l-12.373-98.56c-17.493-8.107-34.133-17.92-49.92-29.013l-91.733 38.827c-19.627 8.533-42.667 0.853-53.333-17.92l-79.787-138.24c-10.667-18.773-5.973-42.24 11.093-55.467l79.36-60.16c-0.853-9.387-1.28-18.773-1.28-28.587s0.427-19.2 1.28-29.013l-79.36-60.16c-17.067-12.8-21.76-36.693-11.093-55.467l79.787-137.813c10.667-18.773 33.707-26.453 53.333-17.92l91.733 38.827c15.787-11.093 32.427-20.907 49.92-29.013l12.373-98.56c2.56-21.333 20.907-37.547 42.24-37.547h159.147c21.333 0 39.68 16.213 42.24 37.547l12.373 98.56c17.493 8.107 34.133 17.92 49.92 29.013l91.733-38.827c19.627-8.533 42.667-0.853 53.333 17.92l79.787 137.813c10.667 18.773 5.973 42.24-11.093 55.467l-79.36 60.16c1.28 9.813 1.707 19.2 1.707 29.013zM513.707 234.667c-82.347 0-149.333 66.987-149.333 149.333s66.987 149.333 149.333 149.333c82.347 0 149.333-66.987 149.333-149.333s-66.987-149.333-149.333-149.333z" />
<glyph unicode="&#xe98a;" glyph-name="share" data-tags="share" d="M768 213.333c-33.707 0-64-13.227-86.613-34.56l-301.227 175.36c2.133 9.813 3.84 19.627 3.84 29.867s-1.707 20.053-3.84 29.867l300.8 175.36c22.613-21.333 53.333-34.56 87.040-34.56 70.827 0 128 57.173 128 128s-57.173 128-128 128c-70.827 0-128-57.173-128-128 0-10.24 1.707-20.48 3.84-29.867l-300.8-175.36c-23.040 21.333-53.333 34.56-87.040 34.56-70.827 0-128-57.173-128-128s57.173-128 128-128c33.707 0 64 13.227 87.040 34.56l300.8-175.787c-2.133-9.387-3.84-19.2-3.84-29.44 0-70.827 57.173-128 128-128s128 57.173 128 128c0 70.827-57.173 128-128 128z" />
<glyph unicode="&#xe98b;" glyph-name="share_ios" data-tags="share_ios" d="M768 554.667h-85.333c-23.467 0-42.667-19.2-42.667-42.667s19.2-42.667 42.667-42.667h85.333v-469.333h-512v469.333h85.333c23.467 0 42.667 19.2 42.667 42.667s-19.2 42.667-42.667 42.667h-85.333c-46.933 0-85.333-38.4-85.333-85.333v-469.333c0-46.933 38.4-85.333 85.333-85.333h512c46.933 0 85.333 38.4 85.333 85.333v469.333c0 46.933-38.4 85.333-85.333 85.333zM512 213.333c23.467 0 42.667 19.2 42.667 42.667v426.667h76.373c19.2 0 28.587 23.040 14.933 36.267l-119.040 119.040c-8.533 8.533-21.76 8.533-30.293 0l-119.040-119.040c-13.227-13.227-3.84-36.267 15.36-36.267h76.373v-426.667c0-23.467 19.2-42.667 42.667-42.667z" />
</font>
</defs>
</svg>
